<svg width="232" height="64" viewBox="0 0 232 64" fill="none" xmlns="http://www.w3.org/2000/svg">
<path d="M35.9401 57.1198H27.9598L26.5763 54.9202H12.7677L10.5198 57.1198H2.53946L18.2751 41.7226H26.2554L35.9401 57.1198ZM23.8092 50.521L21.3144 46.5617L17.2636 50.521H23.8092ZM39.8684 41.7226H64.0782C64.9002 41.7226 65.6361 41.8179 66.2861 42.0086C66.9361 42.1992 67.4702 42.4851 67.8885 42.8664C68.3096 43.233 68.6014 43.6876 68.7637 44.2302C68.9411 44.7727 68.9592 45.4033 68.818 46.1218C68.671 46.8697 68.3709 47.5222 67.9177 48.0794C67.4795 48.6367 66.9134 49.0839 66.2194 49.4212C66.7808 49.7585 67.1711 50.2057 67.3904 50.763C67.6247 51.3202 67.6683 51.9727 67.5213 52.7206C67.3802 53.4391 67.1143 54.0697 66.7237 54.6122C66.3481 55.1548 65.8763 55.6167 65.3082 55.998C64.743 56.3646 64.0979 56.6432 63.373 56.8338C62.6481 57.0245 61.8747 57.1198 61.0528 57.1198H36.8429L39.8684 41.7226ZM45.8283 47.4416H60.4887C61.1462 47.4416 61.5326 47.1483 61.6479 46.5617C61.7631 45.9752 61.492 45.6819 60.8344 45.6819H46.174L45.8283 47.4416ZM59.3649 53.1605C60.0225 53.1605 60.4089 52.8672 60.5242 52.2807C60.6394 51.6941 60.3683 51.4008 59.7107 51.4008H45.0503L44.7045 53.1605H59.3649ZM81.3469 47.0016H70.0041L71.0414 41.7226H100.855L99.8181 47.0016H88.4305L86.4423 57.1198H79.3587L81.3469 47.0016ZM126.008 41.5027C127.084 41.5027 128.058 41.7153 128.931 42.1405C129.804 42.5658 130.52 43.145 131.078 43.8782C131.654 44.5968 132.049 45.4399 132.262 46.4078C132.493 47.3609 132.505 48.3654 132.298 49.4212C132.09 50.477 131.682 51.4888 131.074 52.4566C130.483 53.4098 129.757 54.253 128.895 54.9862C128.052 55.7047 127.11 56.2766 126.07 56.7019C125.03 57.1271 123.972 57.3397 122.896 57.3397H106.532C105.456 57.3397 104.481 57.1271 103.609 56.7019C102.736 56.2766 102.011 55.7047 101.435 54.9862C100.877 54.253 100.482 53.4098 100.251 52.4566C100.037 51.4888 100.035 50.477 100.242 49.4212C100.449 48.3654 100.849 47.3609 101.439 46.4078C102.048 45.4399 102.774 44.5968 103.618 43.8782C104.479 43.145 105.43 42.5658 106.47 42.1405C107.51 41.7153 108.568 41.5027 109.644 41.5027H126.008ZM123.427 47.2216H109.977C109.349 47.2216 108.777 47.4342 108.26 47.8595C107.743 48.2847 107.424 48.8053 107.303 49.4212C107.182 50.0371 107.297 50.5577 107.646 50.9829C107.996 51.4082 108.485 51.6208 109.113 51.6208H122.563C123.19 51.6208 123.763 51.4082 124.279 50.9829C124.796 50.5577 125.115 50.0371 125.236 49.4212C125.357 48.8053 125.243 48.2847 124.893 47.8595C124.543 47.4342 124.055 47.2216 123.427 47.2216ZM135.161 41.7226H142.244L140.585 50.1691L154.708 41.7226H164.975L152.097 49.4212L161.949 57.1198H151.682L146.28 52.8966L139.219 57.1198H132.135L135.161 41.7226ZM195.811 57.1198H187.831L186.447 54.9202H172.639L170.391 57.1198H162.411L178.146 41.7226H186.127L195.811 57.1198ZM183.68 50.521L181.186 46.5617L177.135 50.521H183.68ZM199.74 41.7226H223.277C224.263 41.7226 225.11 41.8986 225.818 42.2505C226.526 42.6025 227.092 43.0717 227.514 43.6583C227.94 44.2302 228.223 44.8827 228.363 45.6159C228.503 46.3491 228.496 47.1043 228.343 47.8815C228.194 48.644 227.903 49.3992 227.472 50.1471C227.044 50.8803 226.504 51.5401 225.85 52.1267C225.2 52.6986 224.452 53.1605 223.605 53.5124C222.759 53.8644 221.843 54.0403 220.857 54.0403H204.403L203.798 57.1198H196.714L199.74 41.7226ZM205.786 47.0016L205.44 48.7613H220.101C220.758 48.7613 221.144 48.468 221.26 47.8815C221.375 47.2949 221.104 47.0016 220.446 47.0016H205.786Z" fill="white"/>
<path d="M75.2649 21.2211C75.2649 21.2211 27.9258 18.0403 1.82422 39.2772C1.82422 39.2772 16.4187 21.7826 54.0279 18.0403C70.3066 11.5849 86.8656 3.72649 106.044 1.48081C125.223 -0.764377 158.155 2.79079 177.801 8.49758C177.801 8.49758 143.373 18.6017 124.943 17.7595C138.449 17.0055 155.535 9.24615 155.535 9.24615C133.269 3.35222 118.207 2.7908 102.115 5.78455C86.0235 8.7783 60.5763 18.321 60.5763 18.321C63.8513 19.4438 75.2649 21.2211 75.2649 21.2211ZM223.457 16.1693C223.457 16.1693 229.818 15.1401 231.596 12.427C223.55 14.5786 195.109 12.8949 186.292 10.4626C174.107 16.6372 142.8 21.4444 117.833 23.7475C177.802 20.0389 218.427 2.41701 230.531 37.5939C232.74 25.057 223.457 16.1693 223.457 16.1693Z" fill="white"/>
<path d="M32.8237 35.815C36.8378 30.4325 44.2853 26.8135 52.8156 26.8135C61.4057 26.8135 68.8977 30.4835 72.8911 35.9294H67.4912C63.7578 31.5207 57.3688 28.6131 50.1104 28.6131C42.9145 28.6136 36.57 31.4702 32.8237 35.815Z" fill="white"/>
<path d="M167.311 33.0294C171.67 27.6469 179.755 24.0278 189.017 24.0278C198.344 24.0278 206.478 27.6979 210.814 33.1437H204.951C200.898 28.7351 193.961 25.8274 186.081 25.8274C178.267 25.8274 171.379 28.6841 167.311 33.0294Z" fill="white"/>
</svg>
