<svg width="268" height="73" viewBox="0 0 268 73" fill="none" xmlns="http://www.w3.org/2000/svg">
<path d="M41.2089 65.4002H31.9619L30.3587 62.8515H14.3583L11.7535 65.4002H2.50654L20.7399 47.5591H29.9869L41.2089 65.4002ZM27.1525 57.754L24.2616 53.1663L19.5678 57.754H27.1525ZM45.7607 47.5591H73.8134C74.7658 47.5591 75.6185 47.6695 76.3717 47.8904C77.1248 48.1113 77.7437 48.4426 78.2284 48.8844C78.7164 49.3092 79.0544 49.8359 79.2426 50.4646C79.4481 51.0933 79.469 51.824 79.3054 52.6565C79.1351 53.5231 78.7874 54.2792 78.2623 54.9249C77.7544 55.5706 77.0985 56.0888 76.2944 56.4796C76.9449 56.8705 77.3972 57.3887 77.6513 58.0344C77.9227 58.6801 77.9733 59.4362 77.803 60.3028C77.6394 61.1353 77.3313 61.866 76.8788 62.4947C76.4435 63.1233 75.8968 63.6586 75.2385 64.1004C74.5836 64.5252 73.8362 64.848 72.9962 65.0689C72.1563 65.2898 71.2601 65.4002 70.3077 65.4002H42.255L45.7607 47.5591ZM52.6666 54.1858H69.654C70.4159 54.1858 70.8637 53.846 70.9972 53.1663C71.1308 52.4866 70.8166 52.1468 70.0547 52.1468H53.0672L52.6666 54.1858ZM68.3519 60.8125C69.1138 60.8125 69.5616 60.4727 69.6951 59.793C69.8287 59.1133 69.5145 58.7735 68.7526 58.7735H51.7651L51.3644 60.8125H68.3519ZM93.823 53.676H80.6798L81.8818 47.5591H116.428L115.226 53.676H102.031L99.7273 65.4002H91.5193L93.823 53.676ZM145.573 47.3042C146.82 47.3042 147.949 47.5506 148.96 48.0433C149.972 48.5361 150.801 49.2073 151.448 50.0568C152.115 50.8894 152.573 51.8664 152.82 52.9879C153.088 54.0923 153.102 55.2563 152.861 56.4796C152.621 57.703 152.148 58.8755 151.443 59.9969C150.758 61.1014 149.917 62.0784 148.919 62.9279C147.941 63.7605 146.85 64.4232 145.645 64.916C144.44 65.4087 143.214 65.6551 141.967 65.6551H123.006C121.759 65.6551 120.63 65.4087 119.618 64.916C118.607 64.4232 117.767 63.7605 117.1 62.9279C116.453 62.0784 115.995 61.1014 115.728 59.9969C115.48 58.8755 115.477 57.703 115.717 56.4796C115.958 55.2563 116.42 54.0923 117.105 52.9879C117.81 51.8664 118.651 50.8894 119.629 50.0568C120.627 49.2073 121.729 48.5361 122.934 48.0433C124.139 47.5506 125.365 47.3042 126.611 47.3042H145.573ZM142.582 53.9309H126.998C126.27 53.9309 125.607 54.1773 125.008 54.67C124.409 55.1628 124.04 55.766 123.899 56.4796C123.759 57.1933 123.892 57.7965 124.297 58.2892C124.702 58.782 125.269 59.0284 125.996 59.0284H141.581C142.308 59.0284 142.971 58.782 143.57 58.2892C144.169 57.7965 144.539 57.1933 144.679 56.4796C144.819 55.766 144.687 55.1628 144.281 54.67C143.876 54.1773 143.31 53.9309 142.582 53.9309Z" fill="#202020"/>
<path d="M156.179 47.5591H164.387L162.463 57.3462L178.829 47.5591H190.725L175.803 56.4796L187.219 65.4002H175.323L169.063 60.5066L160.881 65.4002H152.673L156.179 47.5591ZM226.456 65.4002H217.209L215.606 62.8515H199.606L197.001 65.4002H187.754L205.987 47.5591H215.234L226.456 65.4002ZM212.4 57.754L209.509 53.1663L204.815 57.754H212.4ZM231.008 47.5591H258.282C259.424 47.5591 260.406 47.763 261.226 48.1708C262.047 48.5786 262.702 49.1223 263.192 49.802C263.685 50.4646 264.012 51.2208 264.175 52.0703C264.337 52.9199 264.329 53.795 264.152 54.6955C263.979 55.5791 263.642 56.4542 263.143 57.3207C262.647 58.1703 262.02 58.9349 261.264 59.6146C260.51 60.2773 259.643 60.8125 258.662 61.2203C257.682 61.6281 256.62 61.832 255.477 61.832H236.412L235.71 65.4002H227.502L231.008 47.5591ZM238.014 53.676L237.614 55.715H254.601C255.363 55.715 255.811 55.3752 255.944 54.6955C256.078 54.0159 255.764 53.676 255.002 53.676H238.014Z" fill="#0C4AAC"/>
<path d="M86.803 23.6628C86.803 23.6628 31.9498 19.977 1.70508 44.5849C1.70508 44.5849 18.6161 24.3133 62.1951 19.977C81.0577 12.497 100.245 3.39124 122.468 0.789102C144.691 -1.81246 182.85 2.30702 205.615 8.91964C205.615 8.91964 165.722 20.6276 144.366 19.6518C160.016 18.7781 179.815 9.78703 179.815 9.78703C154.014 2.95756 136.561 2.30702 117.915 5.77597C99.2692 9.24491 69.7829 20.3023 69.7829 20.3023C73.5777 21.6034 86.803 23.6628 86.803 23.6628ZM258.517 17.8091C258.517 17.8091 265.889 16.6165 267.948 13.4728C258.626 15.966 225.67 14.0149 215.453 11.1965C201.334 18.3512 165.058 23.9215 136.128 26.5902C205.616 22.2929 252.689 1.8739 266.714 42.6344C269.275 28.1076 258.517 17.8091 258.517 17.8091Z" fill="#0C4AAC"/>
<path d="M37.625 40.5732C42.2763 34.3364 50.9059 30.1429 60.7901 30.1429C70.7438 30.1429 79.425 34.3955 84.0522 40.7058H77.7952C73.4692 35.5973 66.0661 32.2281 57.6556 32.2281C49.3174 32.2287 41.9659 35.5388 37.625 40.5732Z" fill="#0C4AAC"/>
<path d="M193.459 37.3453C198.51 31.1084 207.879 26.9149 218.61 26.9149C229.417 26.9149 238.843 31.1675 243.867 37.4778H237.074C232.377 32.3693 224.339 29.0002 215.208 29.0002C206.154 29.0002 198.172 32.3102 193.459 37.3453Z" fill="#0C4AAC"/>
</svg>
