<svg width="155" height="63" viewBox="0 0 155 63" fill="none" xmlns="http://www.w3.org/2000/svg">
<g clip-path="url(#clip0_45_790)">
<path d="M10.1433 0.496338L13.2775 6.84761L20.2868 7.86636L15.2149 12.8098L16.4121 19.7908L10.1433 16.495L3.87415 19.7908L5.07142 12.8098L-0.000488281 7.86636L7.00874 6.84761L10.1433 0.496338Z" fill="#EFCE4A"/>
</g>
<g clip-path="url(#clip1_45_790)">
<path d="M37.8084 0.496338L40.9426 6.84761L47.9518 7.86636L42.8799 12.8098L44.0772 19.7908L37.8084 16.495L31.5392 19.7908L32.7365 12.8098L27.6646 7.86636L34.6738 6.84761L37.8084 0.496338Z" fill="#EFCE4A"/>
</g>
<g clip-path="url(#clip2_45_790)">
<path d="M65.4724 0.496338L68.6066 6.84761L75.6159 7.86636L70.544 12.8098L71.7412 19.7908L65.4724 16.495L59.2033 19.7908L60.4005 12.8098L55.3286 7.86636L62.3378 6.84761L65.4724 0.496338Z" fill="#EFCE4A"/>
</g>
<g clip-path="url(#clip3_45_790)">
<path d="M93.1372 0.496338L96.2714 6.84761L103.281 7.86636L98.2088 12.8098L99.406 19.7908L93.1372 16.495L86.868 19.7908L88.0653 12.8098L82.9934 7.86636L90.0026 6.84761L93.1372 0.496338Z" fill="#EFCE4A"/>
</g>
<g clip-path="url(#clip4_45_790)">
<path d="M120.802 0.496338L123.936 6.84761L130.945 7.86636L125.873 12.8098L127.07 19.7908L120.802 16.495L114.532 19.7908L115.73 12.8098L110.658 7.86636L117.667 6.84761L120.802 0.496338Z" fill="#EFCE4A"/>
</g>
<path d="M1.46181 41.8201V29.7484H5.54075C6.48778 29.7484 7.26191 29.9193 7.86314 30.2612C8.4683 30.5991 8.91628 31.0569 9.20707 31.6346C9.49786 32.2122 9.64325 32.8567 9.64325 33.568C9.64325 34.2792 9.49786 34.9256 9.20707 35.5072C8.92021 36.0888 8.47616 36.5525 7.87493 36.8983C7.2737 37.2402 6.5035 37.4111 5.56432 37.4111H2.6407V36.1143H5.51717C6.16555 36.1143 6.68623 36.0023 7.07919 35.7784C7.47215 35.5544 7.75704 35.2518 7.93388 34.8706C8.11464 34.4855 8.20502 34.0513 8.20502 33.568C8.20502 33.0846 8.11464 32.6524 7.93388 32.2712C7.75704 31.89 7.47018 31.5914 7.07329 31.3752C6.6764 31.1552 6.14983 31.0451 5.49359 31.0451H2.92363V41.8201H1.46181ZM15.5082 42.0088C14.6358 42.0088 13.8833 41.8162 13.2506 41.4311C12.6219 41.0421 12.1366 40.4998 11.7947 39.8042C11.4568 39.1048 11.2878 38.2913 11.2878 37.364C11.2878 36.4366 11.4568 35.6192 11.7947 34.9119C12.1366 34.2006 12.6121 33.6465 13.2212 33.2497C13.8342 32.8488 14.5494 32.6484 15.3667 32.6484C15.8383 32.6484 16.3039 32.727 16.7637 32.8842C17.2235 33.0414 17.642 33.2968 18.0192 33.6505C18.3965 34.0002 18.6971 34.4639 18.9211 35.0416C19.145 35.6192 19.257 36.3305 19.257 37.1753V37.7648H12.2781V36.5623H17.8424C17.8424 36.0515 17.7402 35.5956 17.5359 35.1948C17.3355 34.794 17.0486 34.4777 16.6753 34.2458C16.3059 34.014 15.8697 33.898 15.3667 33.898C14.8127 33.898 14.3332 34.0356 13.9285 34.3107C13.5277 34.5818 13.2192 34.9355 13.0031 35.3716C12.7869 35.8078 12.6789 36.2755 12.6789 36.7745V37.5762C12.6789 38.2599 12.7968 38.8395 13.0325 39.315C13.2722 39.7866 13.6043 40.1461 14.0287 40.3937C14.4531 40.6373 14.9463 40.7591 15.5082 40.7591C15.8736 40.7591 16.2037 40.7081 16.4985 40.6059C16.7971 40.4998 17.0545 40.3426 17.2706 40.1343C17.4867 39.9221 17.6538 39.6588 17.7716 39.3445L19.1156 39.7217C18.9741 40.1776 18.7364 40.5784 18.4023 40.9242C18.0683 41.2661 17.6557 41.5333 17.1645 41.7258C16.6733 41.9144 16.1212 42.0088 15.5082 42.0088ZM22.7642 39.7689L27.1261 32.7663H28.7294V41.8201H27.3383V34.8176L23 41.8201H21.3731V32.7663H22.7642V39.7689ZM26.2065 29.7484H27.5033C27.5033 30.385 27.2833 30.9056 26.8431 31.3104C26.403 31.7151 25.8057 31.9175 25.0512 31.9175C24.3085 31.9175 23.7171 31.7151 23.277 31.3104C22.8408 30.9056 22.6227 30.385 22.6227 29.7484H23.9195C23.9195 30.0549 24.004 30.3241 24.173 30.5559C24.3459 30.7878 24.6386 30.9037 25.0512 30.9037C25.4639 30.9037 25.7586 30.7878 25.9354 30.5559C26.1162 30.3241 26.2065 30.0549 26.2065 29.7484ZM30.0453 34.0631V32.7663H37.4015V34.0631H34.4307V41.8201H33.0396V34.0631H30.0453ZM40.8217 39.7689L45.1836 32.7663H46.7869V41.8201H45.3958V34.8176L41.0575 41.8201H39.4307V32.7663H40.8217V39.7689ZM55.3942 36.6566V37.9534H50.3957V36.6566H55.3942ZM50.7258 32.7663V41.8201H49.3347V32.7663H50.7258ZM56.4552 32.7663V41.8201H55.0641V32.7663H56.4552ZM64.5836 32.7663V34.0631H60.3868V41.8201H58.9957V32.7663H64.5836Z" fill="#0E0E13"/>
<g clip-path="url(#clip5_45_790)">
<path d="M151.097 43.1278C152.707 43.1278 153.847 42.8451 154.697 42.2361V39.474C153.825 40.0612 152.774 40.431 151.298 40.431C148.816 40.431 147.787 38.5606 147.787 35.6027C147.787 32.4927 149.039 30.905 151.32 30.905C152.662 30.905 153.981 31.3617 154.675 31.7967V28.9259C153.937 28.5344 152.662 28.2516 150.918 28.2516C146.468 28.2516 144.164 31.3617 144.164 35.7115C144.187 40.4745 146.445 43.1278 151.097 43.1278ZM129.338 41.8664V39.1043C128.264 39.822 126.431 40.4527 124.753 40.4527C122.204 40.4527 121.242 39.2783 121.086 36.8859H129.494V35.1025C129.494 30.122 127.236 28.2516 123.769 28.2516C119.521 28.2516 117.508 31.4052 117.508 35.7332C117.508 40.7137 120.035 43.1278 124.463 43.1278C126.677 43.1278 128.309 42.5406 129.338 41.8664ZM97.4262 28.5126V34.1673H92.7747V28.5126H89.2861V42.8451H92.7747V36.8642H97.4262V42.8451H100.915V28.5126H97.4262ZM116.636 40.1482H115.093V28.5126H104.94V29.7306C104.94 33.2321 104.716 37.7559 103.486 40.1482H102.368V46.1074H105.589V42.8451H113.393V46.1074H116.613V40.1482H116.636ZM140.452 42.8451H144.41L138.82 35.1243L143.739 28.5126H140.228L135.309 35.1243V28.5126H131.82V42.8451H135.309V35.7985L140.452 42.8451ZM123.68 30.905C125.402 30.905 125.939 32.2969 125.939 34.1021V34.3848H121.086C121.175 32.1012 122.025 30.905 123.68 30.905ZM111.604 40.1482H106.684C107.646 37.9951 107.914 34.0803 107.914 31.601V31.166H111.604V40.1482Z" fill="black"/>
<path d="M86.379 42.8451H82.8234V25.7288H81.2356C78.3285 25.7288 76.8078 27.1425 76.8078 29.2521C76.8078 31.6445 77.8589 32.7537 80.028 34.1673L81.8171 35.3418L76.6736 42.8451H72.8496L77.4787 36.1465C74.8175 34.2978 73.3192 32.4927 73.3192 29.4478C73.3192 25.6418 76.0475 23.0537 81.2133 23.0537H86.3567V42.8451H86.379Z" fill="#FC3F1D"/>
</g>
<path d="M1.15792 59.7181V50.9997H1.954V54.997H6.90072V50.9997H7.69679V59.7181H6.90072V55.7122H1.954V59.7181H1.15792ZM11.6772 59.8671C11.2827 59.8671 10.9222 59.7905 10.5959 59.6373C10.2695 59.4812 10.0098 59.257 9.81681 58.9646C9.62382 58.6695 9.52733 58.3119 9.52733 57.8919C9.52733 57.5683 9.58835 57.2959 9.71039 57.0745C9.83242 56.8531 10.0055 56.6715 10.2297 56.5296C10.454 56.3877 10.7193 56.2756 11.0258 56.1933C11.3323 56.111 11.6701 56.0471 12.039 56.0017C12.4051 55.9563 12.7145 55.9166 12.967 55.8825C13.2225 55.8485 13.4169 55.7945 13.5503 55.7207C13.6837 55.647 13.7503 55.5278 13.7503 55.3632V55.2099C13.7503 54.7643 13.617 54.4138 13.3502 54.1584C13.0862 53.9001 12.7059 53.771 12.2093 53.771C11.7382 53.771 11.3536 53.8746 11.0556 54.0818C10.7605 54.289 10.5533 54.533 10.4341 54.814L9.71464 54.5543C9.86222 54.1967 10.0666 53.9115 10.3277 53.6986C10.5888 53.4829 10.8811 53.3283 11.2046 53.2346C11.5282 53.1381 11.856 53.0899 12.188 53.0899C12.4378 53.0899 12.6974 53.1225 12.967 53.1878C13.2395 53.2531 13.4921 53.3666 13.7248 53.5284C13.9575 53.6873 14.1463 53.9101 14.291 54.1967C14.4357 54.4805 14.5081 54.841 14.5081 55.278V59.7181H13.7503V58.6837H13.7035C13.6127 58.8767 13.4779 59.064 13.2991 59.2456C13.1203 59.4272 12.8961 59.5762 12.6265 59.6926C12.3569 59.809 12.0404 59.8671 11.6772 59.8671ZM11.7793 59.1732C12.1823 59.1732 12.5314 59.0838 12.8266 58.905C13.1217 58.7262 13.3488 58.4893 13.5077 58.1941C13.6695 57.8961 13.7503 57.5683 13.7503 57.2107V56.2657C13.6936 56.3196 13.5985 56.3678 13.4651 56.4104C13.3346 56.453 13.1827 56.4913 13.0096 56.5253C12.8393 56.5566 12.6691 56.5835 12.4988 56.6062C12.3285 56.6289 12.1752 56.6488 12.039 56.6658C11.6701 56.7112 11.355 56.7822 11.0939 56.8787C10.8328 56.9752 10.6328 57.1086 10.4937 57.2788C10.3546 57.4463 10.2851 57.662 10.2851 57.9259C10.2851 58.3232 10.427 58.6312 10.7108 58.8497C10.9946 59.0654 11.3508 59.1732 11.7793 59.1732ZM22.4369 59.8544C21.8721 59.8544 21.3726 59.711 20.9384 59.4244C20.507 59.1378 20.1693 58.7419 19.9252 58.2367C19.6812 57.7287 19.5591 57.1426 19.5591 56.4785C19.5591 55.8087 19.6812 55.2198 19.9252 54.7118C20.1693 54.201 20.507 53.8036 20.9384 53.5198C21.3726 53.2332 21.8721 53.0899 22.4369 53.0899C23.0017 53.0899 23.4998 53.2332 23.9311 53.5198C24.3625 53.8065 24.7003 54.2038 24.9443 54.7118C25.1912 55.2198 25.3147 55.8087 25.3147 56.4785C25.3147 57.1426 25.1927 57.7287 24.9486 58.2367C24.7045 58.7419 24.3654 59.1378 23.9311 59.4244C23.4998 59.711 23.0017 59.8544 22.4369 59.8544ZM22.4369 59.1605C22.891 59.1605 23.2756 59.0384 23.5906 58.7944C23.9056 58.5503 24.144 58.2253 24.3058 57.8195C24.4704 57.4136 24.5527 56.9667 24.5527 56.4785C24.5527 55.9904 24.4704 55.542 24.3058 55.1333C24.144 54.7246 23.9056 54.3968 23.5906 54.1499C23.2756 53.903 22.891 53.7795 22.4369 53.7795C21.9857 53.7795 21.6011 53.903 21.2832 54.1499C20.9682 54.3968 20.7284 54.7246 20.5638 55.1333C20.402 55.542 20.3211 55.9904 20.3211 56.4785C20.3211 56.9667 20.402 57.4136 20.5638 57.8195C20.7284 58.2253 20.9682 58.5503 21.2832 58.7944C21.5983 59.0384 21.9828 59.1605 22.4369 59.1605ZM29.5324 59.8544C28.9477 59.8544 28.4383 59.7082 28.0041 59.4159C27.5727 59.1236 27.2378 58.7234 26.9994 58.2154C26.761 57.7074 26.6418 57.1284 26.6418 56.4785C26.6418 55.8229 26.7624 55.2397 27.0037 54.7288C27.2478 54.218 27.5855 53.8178 28.0169 53.5284C28.4482 53.236 28.9492 53.0899 29.5196 53.0899C29.9567 53.0899 30.3526 53.175 30.7073 53.3453C31.0621 53.5127 31.3544 53.7497 31.5843 54.0562C31.817 54.3599 31.9632 54.7147 32.0228 55.1205H31.2565C31.177 54.7516 30.9855 54.4365 30.6818 54.1754C30.381 53.9115 29.9978 53.7795 29.5324 53.7795C29.1152 53.7795 28.7462 53.893 28.4255 54.1201C28.1048 54.3443 27.8537 54.6579 27.672 55.0609C27.4932 55.4611 27.4038 55.9251 27.4038 56.453C27.4038 56.9837 27.4918 57.4534 27.6678 57.8621C27.8437 58.2679 28.0907 58.5858 28.4085 58.8156C28.7292 59.0455 29.1038 59.1605 29.5324 59.1605C29.8219 59.1605 30.0858 59.1065 30.3242 58.9987C30.5654 58.888 30.7669 58.7319 30.9287 58.5304C31.0933 58.3289 31.204 58.0891 31.2608 57.811H32.027C31.9703 58.2055 31.8298 58.5574 31.6056 58.8667C31.3842 59.1732 31.0961 59.4145 30.7414 59.5904C30.3895 59.7664 29.9865 59.8544 29.5324 59.8544ZM38.0657 56.0954V56.8106H34.2216V56.0954H38.0657ZM34.4089 53.1793V59.7181H33.6511V53.1793H34.4089ZM38.6234 53.1793V59.7181H37.8656V53.1793H38.6234ZM43.1816 59.8544C42.6169 59.8544 42.1174 59.711 41.6831 59.4244C41.2518 59.1378 40.914 58.7419 40.67 58.2367C40.4259 57.7287 40.3038 57.1426 40.3038 56.4785C40.3038 55.8087 40.4259 55.2198 40.67 54.7118C40.914 54.201 41.2518 53.8036 41.6831 53.5198C42.1174 53.2332 42.6169 53.0899 43.1816 53.0899C43.7464 53.0899 44.2445 53.2332 44.6759 53.5198C45.1072 53.8065 45.445 54.2038 45.689 54.7118C45.936 55.2198 46.0594 55.8087 46.0594 56.4785C46.0594 57.1426 45.9374 57.7287 45.6933 58.2367C45.4492 58.7419 45.1101 59.1378 44.6759 59.4244C44.2445 59.711 43.7464 59.8544 43.1816 59.8544ZM43.1816 59.1605C43.6357 59.1605 44.0203 59.0384 44.3353 58.7944C44.6503 58.5503 44.8887 58.2253 45.0505 57.8195C45.2151 57.4136 45.2974 56.9667 45.2974 56.4785C45.2974 55.9904 45.2151 55.542 45.0505 55.1333C44.8887 54.7246 44.6503 54.3968 44.3353 54.1499C44.0203 53.903 43.6357 53.7795 43.1816 53.7795C42.7304 53.7795 42.3458 53.903 42.028 54.1499C41.7129 54.3968 41.4731 54.7246 41.3085 55.1333C41.1467 55.542 41.0659 55.9904 41.0659 56.4785C41.0659 56.9667 41.1467 57.4136 41.3085 57.8195C41.4731 58.2253 41.7129 58.5503 42.028 58.7944C42.343 59.0384 42.7275 59.1605 43.1816 59.1605ZM47.7229 59.7181V53.1793H50.2984C50.9937 53.1793 51.5415 53.3297 51.9416 53.6305C52.3446 53.9314 52.5461 54.3372 52.5461 54.848C52.5461 55.2369 52.434 55.5476 52.2098 55.7803C51.9856 56.0131 51.6848 56.1777 51.3073 56.2742C51.5599 56.3167 51.794 56.409 52.0097 56.5509C52.2283 56.6928 52.4056 56.8801 52.5419 57.1128C52.6781 57.3455 52.7462 57.6237 52.7462 57.9472C52.7462 58.2878 52.6611 58.5914 52.4908 58.8582C52.3205 59.125 52.0807 59.335 51.7713 59.4883C51.462 59.6415 51.0959 59.7181 50.673 59.7181H47.7229ZM48.4466 59.0157H50.673C51.0732 59.0157 51.3896 58.9136 51.6223 58.7092C51.8551 58.502 51.9714 58.2267 51.9714 57.8833C51.9714 57.5172 51.8607 57.2249 51.6394 57.0064C51.4208 56.785 51.1271 56.6743 50.7582 56.6743H48.4466V59.0157ZM48.4466 56.0017H50.3452C50.6404 56.0017 50.8958 55.9563 51.1115 55.8655C51.3272 55.7747 51.4932 55.647 51.6096 55.4824C51.7288 55.3149 51.7869 55.1191 51.7841 54.8949C51.7841 54.5742 51.6536 54.3258 51.3925 54.1499C51.1314 53.9711 50.7667 53.8817 50.2984 53.8817H48.4466V56.0017ZM56.2338 59.8671C55.8393 59.8671 55.4789 59.7905 55.1525 59.6373C54.8261 59.4812 54.5665 59.257 54.3735 58.9646C54.1805 58.6695 54.084 58.3119 54.084 57.8919C54.084 57.5683 54.145 57.2959 54.267 57.0745C54.3891 56.8531 54.5622 56.6715 54.7864 56.5296C55.0106 56.3877 55.276 56.2756 55.5825 56.1933C55.889 56.111 56.2267 56.0471 56.5957 56.0017C56.9618 55.9563 57.2711 55.9166 57.5237 55.8825C57.7791 55.8485 57.9735 55.7945 58.1069 55.7207C58.2403 55.647 58.307 55.5278 58.307 55.3632V55.2099C58.307 54.7643 58.1736 54.4138 57.9068 54.1584C57.6429 53.9001 57.2626 53.771 56.766 53.771C56.2948 53.771 55.9103 53.8746 55.6123 54.0818C55.3171 54.289 55.1099 54.533 54.9908 54.814L54.2713 54.5543C54.4189 54.1967 54.6232 53.9115 54.8843 53.6986C55.1454 53.4829 55.4377 53.3283 55.7613 53.2346C56.0848 53.1381 56.4126 53.0899 56.7447 53.0899C56.9944 53.0899 57.2541 53.1225 57.5237 53.1878C57.7962 53.2531 58.0487 53.3666 58.2815 53.5284C58.5142 53.6873 58.7029 53.9101 58.8477 54.1967C58.9924 54.4805 59.0648 54.841 59.0648 55.278V59.7181H58.307V58.6837H58.2602C58.1694 58.8767 58.0346 59.064 57.8558 59.2456C57.677 59.4272 57.4528 59.5762 57.1831 59.6926C56.9135 59.809 56.5971 59.8671 56.2338 59.8671ZM56.336 59.1732C56.739 59.1732 57.0881 59.0838 57.3832 58.905C57.6784 58.7262 57.9054 58.4893 58.0644 58.1941C58.2261 57.8961 58.307 57.5683 58.307 57.2107V56.2657C58.2503 56.3196 58.1552 56.3678 58.0218 56.4104C57.8912 56.453 57.7394 56.4913 57.5663 56.5253C57.396 56.5566 57.2257 56.5835 57.0554 56.6062C56.8851 56.6289 56.7319 56.6488 56.5957 56.6658C56.2267 56.7112 55.9117 56.7822 55.6506 56.8787C55.3895 56.9752 55.1894 57.1086 55.0504 57.2788C54.9113 57.4463 54.8418 57.662 54.8418 57.9259C54.8418 58.3232 54.9837 58.6312 55.2675 58.8497C55.5513 59.0654 55.9074 59.1732 56.336 59.1732ZM65.4951 56.0954V56.8106H61.6509V56.0954H65.4951ZM61.8383 53.1793V59.7181H61.0805V53.1793H61.8383ZM66.0528 53.1793V59.7181H65.295V53.1793H66.0528ZM68.8273 58.6411L72.2798 53.1793H73.1865V59.7181H72.4288V54.2563L68.9891 59.7181H68.0695V53.1793H68.8273V58.6411ZM77.831 59.8544C77.2208 59.8544 76.693 59.7125 76.2474 59.4287C75.8018 59.142 75.457 58.7461 75.2129 58.2409C74.9717 57.7329 74.8511 57.1483 74.8511 56.487C74.8511 55.8286 74.9717 55.244 75.2129 54.7331C75.457 54.2194 75.7933 53.8178 76.2218 53.5284C76.6532 53.236 77.1513 53.0899 77.7161 53.0899C78.0708 53.0899 78.4128 53.1552 78.742 53.2857C79.0712 53.4134 79.3664 53.6107 79.6275 53.8774C79.8914 54.1414 80.1 54.4748 80.2533 54.8778C80.4065 55.278 80.4832 55.752 80.4832 56.2997V56.6743H75.3747V56.006H79.7084C79.7084 55.5859 79.6232 55.2085 79.453 54.8736C79.2855 54.5359 79.0514 54.2691 78.7505 54.0733C78.4525 53.8774 78.1077 53.7795 77.7161 53.7795C77.3017 53.7795 76.937 53.8902 76.622 54.1116C76.307 54.3329 76.0601 54.6253 75.8813 54.9885C75.7053 55.3518 75.6159 55.7491 75.6131 56.1805V56.5807C75.6131 57.1 75.7025 57.5541 75.8813 57.9429C76.0629 58.3289 76.3198 58.6283 76.6518 58.8412C76.9839 59.054 77.3769 59.1605 77.831 59.1605C78.1404 59.1605 78.4114 59.1122 78.6441 59.0157C78.8797 58.9192 79.0769 58.7901 79.2358 58.6283C79.3976 58.4637 79.5197 58.2835 79.602 58.0877L80.3214 58.3218C80.2221 58.5971 80.0589 58.8511 79.8318 59.0838C79.6076 59.3166 79.3267 59.5039 78.9889 59.6458C78.654 59.7848 78.2681 59.8544 77.831 59.8544ZM88.2406 59.8373C87.7071 59.8373 87.2274 59.7352 86.8017 59.5308C86.3789 59.3237 86.0411 59.0398 85.7886 58.6794C85.536 58.319 85.4012 57.9075 85.3841 57.4449H86.6613C86.6925 57.8195 86.8585 58.1274 87.1593 58.3686C87.4602 58.6099 87.8206 58.7305 88.2406 58.7305C88.5755 58.7305 88.8721 58.6539 89.1304 58.5006C89.3915 58.3445 89.5958 58.1303 89.7434 57.8578C89.8938 57.5853 89.969 57.2746 89.969 56.9255C89.969 56.5707 89.8924 56.2543 89.7391 55.9762C89.5859 55.698 89.3744 55.4795 89.1048 55.3206C88.838 55.1617 88.5315 55.0808 88.1853 55.0779C87.9213 55.0779 87.656 55.1233 87.3892 55.2142C87.1224 55.305 86.9067 55.4242 86.7421 55.5717L85.5374 55.393L86.0269 50.9997H90.8204V52.1278H87.121L86.8443 54.5671H86.8954C87.0657 54.4025 87.2913 54.2648 87.5723 54.1541C87.8561 54.0435 88.1597 53.9881 88.4833 53.9881C89.014 53.9881 89.4865 54.1144 89.9009 54.367C90.3181 54.6196 90.6459 54.9644 90.8843 55.4015C91.1255 55.8357 91.2447 56.3352 91.2419 56.9C91.2447 57.4647 91.117 57.9685 90.8587 58.4112C90.6033 58.854 90.2485 59.203 89.7945 59.4585C89.3432 59.711 88.8253 59.8373 88.2406 59.8373ZM95.8321 59.8629C95.1594 59.86 94.5847 59.6827 94.1079 59.3307C93.6311 58.9788 93.2665 58.4666 93.0139 57.7939C92.7613 57.1213 92.635 56.3111 92.635 55.3632C92.635 54.4181 92.7613 53.6107 93.0139 52.9409C93.2693 52.2711 93.6354 51.7602 94.1122 51.4083C94.5918 51.0564 95.1651 50.8805 95.8321 50.8805C96.499 50.8805 97.0709 51.0578 97.5477 51.4126C98.0244 51.7645 98.3891 52.2754 98.6417 52.9451C98.8971 53.6121 99.0249 54.4181 99.0249 55.3632C99.0249 56.3139 98.8986 57.1256 98.646 57.7982C98.3934 58.468 98.0287 58.9802 97.5519 59.335C97.0751 59.6869 96.5018 59.8629 95.8321 59.8629ZM95.8321 58.7262C96.4224 58.7262 96.8835 58.4382 97.2156 57.8621C97.5505 57.2859 97.7179 56.453 97.7179 55.3632C97.7179 54.6395 97.6413 54.0279 97.4881 53.5284C97.3376 53.026 97.1205 52.6457 96.8367 52.3875C96.5558 52.1264 96.2209 51.9958 95.8321 51.9958C95.2446 51.9958 94.7834 52.2853 94.4485 52.8643C94.1136 53.4432 93.9447 54.2762 93.9419 55.3632C93.9419 56.0897 94.0171 56.7041 94.1675 57.2065C94.3208 57.706 94.5379 58.0848 94.8189 58.3431C95.0998 58.5985 95.4376 58.7262 95.8321 58.7262ZM106.61 59.8544C106.045 59.8544 105.546 59.711 105.111 59.4244C104.68 59.1378 104.342 58.7419 104.098 58.2367C103.854 57.7287 103.732 57.1426 103.732 56.4785C103.732 55.8087 103.854 55.2198 104.098 54.7118C104.342 54.201 104.68 53.8036 105.111 53.5198C105.546 53.2332 106.045 53.0899 106.61 53.0899C107.175 53.0899 107.673 53.2332 108.104 53.5198C108.536 53.8065 108.873 54.2038 109.117 54.7118C109.364 55.2198 109.488 55.8087 109.488 56.4785C109.488 57.1426 109.366 57.7287 109.122 58.2367C108.878 58.7419 108.538 59.1378 108.104 59.4244C107.673 59.711 107.175 59.8544 106.61 59.8544ZM106.61 59.1605C107.064 59.1605 107.449 59.0384 107.764 58.7944C108.079 58.5503 108.317 58.2253 108.479 57.8195C108.643 57.4136 108.726 56.9667 108.726 56.4785C108.726 55.9904 108.643 55.542 108.479 55.1333C108.317 54.7246 108.079 54.3968 107.764 54.1499C107.449 53.903 107.064 53.7795 106.61 53.7795C106.159 53.7795 105.774 53.903 105.456 54.1499C105.141 54.3968 104.901 54.7246 104.737 55.1333C104.575 55.542 104.494 55.9904 104.494 56.4785C104.494 56.9667 104.575 57.4136 104.737 57.8195C104.901 58.2253 105.141 58.5503 105.456 58.7944C105.771 59.0384 106.156 59.1605 106.61 59.1605ZM110.271 53.8945V53.1793H115.379V53.8945H113.217V59.7181H112.459V53.8945H110.271ZM116.56 58.0494H117.364C117.387 58.3984 117.537 58.6709 117.816 58.8667C118.094 59.0626 118.46 59.1605 118.914 59.1605C119.385 59.1605 119.774 59.0555 120.08 58.8454C120.387 58.6326 120.54 58.3232 120.54 57.9174C120.54 57.6705 120.482 57.4562 120.366 57.2746C120.252 57.0929 120.096 56.951 119.897 56.8489C119.701 56.7439 119.479 56.6899 119.229 56.6871H118.088V55.9932H119.216C119.605 55.9705 119.9 55.8655 120.102 55.6782C120.303 55.488 120.404 55.2397 120.404 54.9332C120.404 54.5841 120.28 54.3046 120.034 54.0945C119.787 53.8817 119.452 53.7753 119.029 53.7753C118.6 53.7753 118.244 53.8803 117.96 54.0903C117.677 54.3003 117.526 54.5699 117.509 54.8991H116.713C116.727 54.5444 116.834 54.2322 117.032 53.9626C117.231 53.6901 117.499 53.4773 117.837 53.324C118.177 53.1708 118.563 53.0941 118.995 53.0941C119.438 53.0941 119.822 53.1736 120.148 53.3325C120.475 53.4915 120.727 53.7086 120.906 53.9839C121.085 54.2563 121.174 54.5657 121.174 54.9119C121.174 55.2723 121.075 55.5689 120.876 55.8016C120.681 56.0315 120.429 56.1933 120.123 56.2869V56.3508C120.356 56.3763 120.56 56.4615 120.736 56.6062C120.915 56.751 121.055 56.9369 121.157 57.1639C121.26 57.3909 121.311 57.6421 121.311 57.9174C121.311 58.3034 121.21 58.6425 121.008 58.9348C120.807 59.2243 120.526 59.4499 120.165 59.6117C119.808 59.7735 119.395 59.8544 118.927 59.8544C118.475 59.8544 118.074 59.7792 117.722 59.6287C117.37 59.4755 117.09 59.2641 116.883 58.9944C116.679 58.722 116.571 58.407 116.56 58.0494ZM123.508 55.7037H125.424C126.159 55.7037 126.727 55.8825 127.127 56.2401C127.527 56.5977 127.727 57.0816 127.727 57.6918C127.727 58.0976 127.636 58.4524 127.455 58.756C127.276 59.0597 127.015 59.2967 126.671 59.467C126.328 59.6344 125.912 59.7181 125.424 59.7181H122.878V53.1793H123.64V59.003H125.424C125.887 59.003 126.258 58.8923 126.539 58.6709C126.823 58.4495 126.965 58.1345 126.965 57.7258C126.965 57.3086 126.823 56.9865 126.539 56.7595C126.258 56.5324 125.887 56.4189 125.424 56.4189H123.508V55.7037ZM128.83 59.7181V53.1793H129.587V59.7181H128.83ZM131.603 59.7181V53.1793H134.179C134.874 53.1793 135.422 53.3297 135.822 53.6305C136.225 53.9314 136.426 54.3372 136.426 54.848C136.426 55.2369 136.314 55.5476 136.09 55.7803C135.866 56.0131 135.565 56.1777 135.188 56.2742C135.44 56.3167 135.674 56.409 135.89 56.5509C136.109 56.6928 136.286 56.8801 136.422 57.1128C136.558 57.3455 136.627 57.6237 136.627 57.9472C136.627 58.2878 136.541 58.5914 136.371 58.8582C136.201 59.125 135.961 59.335 135.652 59.4883C135.342 59.6415 134.976 59.7181 134.553 59.7181H131.603ZM132.327 59.0157H134.553C134.953 59.0157 135.27 58.9136 135.503 58.7092C135.735 58.502 135.852 58.2267 135.852 57.8833C135.852 57.5172 135.741 57.2249 135.52 57.0064C135.301 56.785 135.007 56.6743 134.638 56.6743H132.327V59.0157ZM132.327 56.0017H134.226C134.521 56.0017 134.776 55.9563 134.992 55.8655C135.208 55.7747 135.374 55.647 135.49 55.4824C135.609 55.3149 135.667 55.1191 135.664 54.8949C135.664 54.5742 135.534 54.3258 135.273 54.1499C135.012 53.9711 134.647 53.8817 134.179 53.8817H132.327V56.0017ZM140.829 59.8544C140.265 59.8544 139.765 59.711 139.331 59.4244C138.899 59.1378 138.562 58.7419 138.318 58.2367C138.074 57.7287 137.952 57.1426 137.952 56.4785C137.952 55.8087 138.074 55.2198 138.318 54.7118C138.562 54.201 138.899 53.8036 139.331 53.5198C139.765 53.2332 140.265 53.0899 140.829 53.0899C141.394 53.0899 141.892 53.2332 142.324 53.5198C142.755 53.8065 143.093 54.2038 143.337 54.7118C143.584 55.2198 143.707 55.8087 143.707 56.4785C143.707 57.1426 143.585 57.7287 143.341 58.2367C143.097 58.7419 142.758 59.1378 142.324 59.4244C141.892 59.711 141.394 59.8544 140.829 59.8544ZM140.829 59.1605C141.283 59.1605 141.668 59.0384 141.983 58.7944C142.298 58.5503 142.536 58.2253 142.698 57.8195C142.863 57.4136 142.945 56.9667 142.945 56.4785C142.945 55.9904 142.863 55.542 142.698 55.1333C142.536 54.7246 142.298 54.3968 141.983 54.1499C141.668 53.903 141.283 53.7795 140.829 53.7795C140.378 53.7795 139.994 53.903 139.676 54.1499C139.361 54.3968 139.121 54.7246 138.956 55.1333C138.794 55.542 138.714 55.9904 138.714 56.4785C138.714 56.9667 138.794 57.4136 138.956 57.8195C139.121 58.2253 139.361 58.5503 139.676 58.7944C139.991 59.0384 140.375 59.1605 140.829 59.1605ZM145.371 59.7181V53.1793H147.946C148.641 53.1793 149.189 53.3297 149.589 53.6305C149.992 53.9314 150.194 54.3372 150.194 54.848C150.194 55.2369 150.082 55.5476 149.858 55.7803C149.633 56.0131 149.332 56.1777 148.955 56.2742C149.208 56.3167 149.442 56.409 149.657 56.5509C149.876 56.6928 150.053 56.8801 150.19 57.1128C150.326 57.3455 150.394 57.6237 150.394 57.9472C150.394 58.2878 150.309 58.5914 150.138 58.8582C149.968 59.125 149.728 59.335 149.419 59.4883C149.11 59.6415 148.744 59.7181 148.321 59.7181H145.371ZM146.094 59.0157H148.321C148.721 59.0157 149.037 58.9136 149.27 58.7092C149.503 58.502 149.619 58.2267 149.619 57.8833C149.619 57.5172 149.508 57.2249 149.287 57.0064C149.069 56.785 148.775 56.6743 148.406 56.6743H146.094V59.0157ZM146.094 56.0017H147.993C148.288 56.0017 148.543 55.9563 148.759 55.8655C148.975 55.7747 149.141 55.647 149.257 55.4824C149.376 55.3149 149.435 55.1191 149.432 54.8949C149.432 54.5742 149.301 54.3258 149.04 54.1499C148.779 53.9711 148.414 53.8817 147.946 53.8817H146.094V56.0017Z" fill="#303035"/>
<path d="M84.5242 62.1021H99.6964V62.9195H84.5242V62.1021Z" fill="#303035"/>
<defs>
<clipPath id="clip0_45_790">
<rect width="20.2872" height="20.2872" fill="white"/>
</clipPath>
<clipPath id="clip1_45_790">
<rect width="20.2872" height="20.2872" fill="white" transform="translate(27.6646)"/>
</clipPath>
<clipPath id="clip2_45_790">
<rect width="20.2872" height="20.2872" fill="white" transform="translate(55.3286)"/>
</clipPath>
<clipPath id="clip3_45_790">
<rect width="20.2872" height="20.2872" fill="white" transform="translate(82.9934)"/>
</clipPath>
<clipPath id="clip4_45_790">
<rect width="20.2872" height="20.2872" fill="white" transform="translate(110.658)"/>
</clipPath>
<clipPath id="clip5_45_790">
<rect width="82.0711" height="23.0537" fill="white" transform="translate(72.8496 23.0537)"/>
</clipPath>
</defs>
</svg>
