<svg width="120" height="120" viewBox="0 0 120 120" fill="none" xmlns="http://www.w3.org/2000/svg">
<mask id="mask0_450_6538" style="mask-type:alpha" maskUnits="userSpaceOnUse" x="6" y="40" width="108" height="40">
<path d="M60.163 79.4979C54.4735 79.4985 48.7839 79.5031 43.0944 79.496C41.0389 79.4936 40.5949 79.0525 40.5812 77.0532C40.573 75.8804 40.5875 74.7074 40.5749 73.5348C40.5583 71.9618 40.2528 71.6536 38.6358 71.6512C33.0372 71.6425 27.4387 71.6477 21.8401 71.6477C17.3339 71.6477 12.8278 71.6553 8.32161 71.6442C6.09722 71.6388 5.4513 70.5835 6.47018 68.6016C9.60718 62.5001 12.7767 56.4152 15.8956 50.3048C16.6276 48.8707 17.7471 48.3299 19.3081 48.3359C25.5892 48.3591 31.8705 48.3459 38.1519 48.3445C40.4812 48.344 40.5771 48.2441 40.5785 45.8714C40.579 44.834 40.5697 43.796 40.5859 42.7589C40.6126 41.0402 41.1473 40.5073 42.8868 40.5046C48.3033 40.4965 53.7196 40.5016 59.1362 40.5016C65.2353 40.5016 71.3347 40.4981 77.4338 40.5032C79.4112 40.5049 79.917 41.0131 79.9361 42.9913C79.947 44.1188 79.9386 45.2467 79.9413 46.3745C79.946 48.2078 80.0856 48.351 81.9928 48.3518C91.7783 48.3551 101.564 48.3524 111.351 48.3581C111.848 48.3583 112.372 48.328 112.838 48.4648C113.995 48.8035 114.327 49.9178 113.657 51.229C111.518 55.4086 109.356 59.5758 107.201 63.7474C106.249 65.5923 105.213 67.4009 104.361 69.2902C103.563 71.0587 102.308 71.7113 100.385 71.6891C94.3325 71.619 88.2785 71.6618 82.2247 71.6656C80.043 71.6669 79.9312 71.7842 79.9298 73.9808C79.929 75.0634 79.9492 76.1463 79.9334 77.2287C79.908 78.9574 79.3864 79.4895 77.6418 79.493C71.8154 79.5052 65.9892 79.4976 60.163 79.4979Z" fill="#5A5F65"/>
</mask>
<g mask="url(#mask0_450_6538)">
<rect x="12" y="43.5" width="48" height="36" fill="url(#paint0_linear_450_6538)"/>
<rect width="48" height="36" transform="matrix(1 0 0 -1 60 79.5)" fill="url(#paint1_linear_450_6538)"/>
</g>
<path d="M60.163 79.4979C54.4735 79.4985 48.7839 79.5031 43.0944 79.496C41.0389 79.4936 40.5949 79.0525 40.5812 77.0532C40.573 75.8804 40.5875 74.7074 40.5749 73.5348C40.5583 71.9618 40.2528 71.6536 38.6358 71.6512C33.0372 71.6425 27.4387 71.6477 21.8401 71.6477C17.3339 71.6477 12.8278 71.6553 8.32161 71.6442C6.09722 71.6388 5.4513 70.5835 6.47018 68.6016C9.60718 62.5001 12.7767 56.4152 15.8956 50.3048C16.6276 48.8707 17.7471 48.3299 19.3081 48.3359C25.5892 48.3591 31.8705 48.3459 38.1519 48.3445C40.4812 48.344 40.5771 48.2441 40.5785 45.8714C40.579 44.834 40.5697 43.796 40.5859 42.7589C40.6126 41.0402 41.1473 40.5073 42.8868 40.5046C48.3033 40.4965 53.7196 40.5016 59.1362 40.5016C65.2353 40.5016 71.3347 40.4981 77.4339 40.5032C79.4112 40.5049 79.917 41.0131 79.9361 42.9913C79.9471 44.1188 79.9386 45.2467 79.9413 46.3745C79.946 48.2078 80.0856 48.351 81.9928 48.3518C91.7783 48.3551 101.564 48.3524 111.351 48.3581C111.848 48.3583 112.372 48.328 112.838 48.4648C113.995 48.8035 114.327 49.9178 113.657 51.229C111.518 55.4086 109.356 59.5758 107.201 63.7474C106.249 65.5923 105.214 67.4009 104.361 69.2902C103.563 71.0587 102.308 71.7113 100.385 71.6891C94.3325 71.619 88.2785 71.6618 82.2247 71.6656C80.043 71.6669 79.9312 71.7842 79.9298 73.9808C79.929 75.0634 79.9492 76.1463 79.9334 77.2287C79.908 78.9574 79.3864 79.4895 77.6418 79.493C71.8154 79.5052 65.9892 79.4976 60.163 79.4979ZM31.1863 65.6478C35.6485 65.6478 40.1107 65.6451 44.5729 65.6491C46.5453 65.6508 46.6262 65.7385 46.6298 67.7472C46.6322 69.1461 46.6467 70.5453 46.6262 71.9439C46.6104 73.0206 47.1118 73.5031 48.1981 73.5018C56.2121 73.4923 64.2257 73.4929 72.2397 73.504C73.4069 73.5056 73.8807 72.9247 73.8742 71.8283C73.866 70.4746 73.8736 69.1207 73.8769 67.767C73.8818 65.7082 73.9406 65.6475 76.0425 65.647C83.3278 65.6453 90.6133 65.6415 97.8985 65.6545C98.7657 65.6562 99.471 65.5579 99.9229 64.6532C101.335 61.8253 102.83 59.0383 104.258 56.2183C104.81 55.1278 104.425 54.5056 103.19 54.3815C102.784 54.3409 102.371 54.3645 101.962 54.3645C93.2194 54.3639 84.477 54.3664 75.7346 54.362C74.0441 54.3612 73.8616 54.1792 73.8507 52.4955C73.8419 51.1421 73.8815 49.7881 73.8698 48.4347C73.8559 46.8403 73.5438 46.5291 71.9487 46.5259C67.7141 46.5178 63.4795 46.5245 59.245 46.5248C55.7388 46.5251 52.2327 46.5202 48.7268 46.527C46.8492 46.5305 46.6434 46.7477 46.6391 48.6486C46.6363 49.822 46.6399 50.9953 46.6382 52.1684C46.6352 54.3044 46.5637 54.3783 44.4158 54.3772C37.1759 54.3737 29.9358 54.4135 22.697 54.3257C21.1374 54.3068 20.295 54.8248 19.6553 56.1972C18.5121 58.65 17.2009 61.0259 15.9667 63.4373C15.1525 65.0282 15.5385 65.6383 17.39 65.6424C21.9888 65.6529 26.5876 65.6462 31.1863 65.6478Z" fill="#5A5F65"/>
<path d="M60.163 79.4979C54.4735 79.4985 48.7839 79.5031 43.0944 79.496C41.0389 79.4936 40.5949 79.0525 40.5812 77.0532C40.573 75.8804 40.5875 74.7074 40.5749 73.5348C40.5583 71.9618 40.2528 71.6536 38.6358 71.6512C33.0372 71.6425 27.4387 71.6477 21.8401 71.6477C17.3339 71.6477 12.8278 71.6553 8.32161 71.6442C6.09722 71.6388 5.4513 70.5835 6.47018 68.6016C9.60718 62.5001 12.7767 56.4152 15.8956 50.3048C16.6276 48.8707 17.7471 48.3299 19.3081 48.3359C25.5892 48.3591 31.8705 48.3459 38.1519 48.3445C40.4812 48.344 40.5771 48.2441 40.5785 45.8714C40.579 44.834 40.5697 43.796 40.5859 42.7589C40.6126 41.0402 41.1473 40.5073 42.8868 40.5046C48.3033 40.4965 53.7196 40.5016 59.1362 40.5016C65.2353 40.5016 71.3347 40.4981 77.4339 40.5032C79.4112 40.5049 79.917 41.0131 79.9361 42.9913C79.9471 44.1188 79.9386 45.2467 79.9413 46.3745C79.946 48.2078 80.0856 48.351 81.9928 48.3518C91.7783 48.3551 101.564 48.3524 111.351 48.3581C111.848 48.3583 112.372 48.328 112.838 48.4648C113.995 48.8035 114.327 49.9178 113.657 51.229C111.518 55.4086 109.356 59.5758 107.201 63.7474C106.249 65.5923 105.214 67.4009 104.361 69.2902C103.563 71.0587 102.308 71.7113 100.385 71.6891C94.3325 71.619 88.2785 71.6618 82.2247 71.6656C80.043 71.6669 79.9312 71.7842 79.9298 73.9808C79.929 75.0634 79.9492 76.1463 79.9334 77.2287C79.908 78.9574 79.3864 79.4895 77.6418 79.493C71.8154 79.5052 65.9892 79.4976 60.163 79.4979ZM31.1863 65.6478C35.6485 65.6478 40.1107 65.6451 44.5729 65.6491C46.5453 65.6508 46.6262 65.7385 46.6298 67.7472C46.6322 69.1461 46.6467 70.5453 46.6262 71.9439C46.6104 73.0206 47.1118 73.5031 48.1981 73.5018C56.2121 73.4923 64.2257 73.4929 72.2397 73.504C73.4069 73.5056 73.8807 72.9247 73.8742 71.8283C73.866 70.4746 73.8736 69.1207 73.8769 67.767C73.8818 65.7082 73.9406 65.6475 76.0425 65.647C83.3278 65.6453 90.6133 65.6415 97.8985 65.6545C98.7657 65.6562 99.471 65.5579 99.9229 64.6532C101.335 61.8253 102.83 59.0383 104.258 56.2183C104.81 55.1278 104.425 54.5056 103.19 54.3815C102.784 54.3409 102.371 54.3645 101.962 54.3645C93.2194 54.3639 84.477 54.3664 75.7346 54.362C74.0441 54.3612 73.8616 54.1792 73.8507 52.4955C73.8419 51.1421 73.8815 49.7881 73.8698 48.4347C73.8559 46.8403 73.5438 46.5291 71.9487 46.5259C67.7141 46.5178 63.4795 46.5245 59.245 46.5248C55.7388 46.5251 52.2327 46.5202 48.7268 46.527C46.8492 46.5305 46.6434 46.7477 46.6391 48.6486C46.6363 49.822 46.6399 50.9953 46.6382 52.1684C46.6352 54.3044 46.5637 54.3783 44.4158 54.3772C37.1759 54.3737 29.9358 54.4135 22.697 54.3257C21.1374 54.3068 20.295 54.8248 19.6553 56.1972C18.5121 58.65 17.2009 61.0259 15.9667 63.4373C15.1525 65.0282 15.5385 65.6383 17.39 65.6424C21.9888 65.6529 26.5876 65.6462 31.1863 65.6478Z" fill="url(#paint2_linear_450_6538)"/>
<defs>
<linearGradient id="paint0_linear_450_6538" x1="36" y1="43.5" x2="36" y2="79.5" gradientUnits="userSpaceOnUse">
<stop stop-color="#EFDA79"/>
<stop offset="1" stop-color="#B48430"/>
</linearGradient>
<linearGradient id="paint1_linear_450_6538" x1="24" y1="0" x2="24" y2="36" gradientUnits="userSpaceOnUse">
<stop stop-color="#EFDA79"/>
<stop offset="1" stop-color="#B48430"/>
</linearGradient>
<linearGradient id="paint2_linear_450_6538" x1="81" y1="79.5" x2="81" y2="36" gradientUnits="userSpaceOnUse">
<stop stop-color="#35464A"/>
<stop offset="1" stop-color="#C2CFD8"/>
</linearGradient>
</defs>
</svg>
