<svg width="120" height="120" viewBox="0 0 120 120" fill="none" xmlns="http://www.w3.org/2000/svg">
<path d="M15.0206 60.6195C14.8379 54.682 15.8711 48.7691 18.0588 43.2328C20.2464 37.6964 23.5439 32.6497 27.7548 28.3933C31.9656 24.1368 37.0039 20.7575 42.5695 18.4566C48.1351 16.1558 54.1143 14.9803 60.1512 15.0002C66.188 15.0202 72.1591 16.2352 77.7088 18.5728C83.2586 20.9104 88.2737 24.3229 92.4554 28.6071C96.6371 32.8913 99.9 37.9597 102.05 43.5104C104.2 49.0611 105.193 54.9807 104.969 60.9168C104.969 85.2258 84.1535 105.113 59.7571 105C35.3606 104.886 14.5771 84.7704 15.0206 60.6195ZM59.9885 20.1739C37.1992 20.0474 18.7428 38.518 18.6978 60.6574C18.8124 71.3404 23.2008 81.5486 30.9118 89.0698C38.6229 96.5911 49.0354 100.819 59.893 100.839C70.7505 100.858 81.1784 96.6661 88.9168 89.1721C96.6552 81.6781 101.081 71.4854 101.234 60.8029C101.273 38.518 82.7521 20.0727 59.9885 20.1739Z" fill="#EE272D"/>
<path d="M34.6278 60.5436C28.8421 65.4648 25.3385 71.4488 23.4228 78.4449C20.3756 67.0589 22.3621 56.7103 30.1213 47.7659C37.8806 38.8216 47.9413 35.2414 59.7635 36.1396C58.2463 33.7928 52.6921 28.9221 43.4799 25.8416C44.1283 25.452 44.8237 25.1438 45.5499 24.9244C50.4623 24.1673 55.4858 24.5309 60.2328 25.9871C70.7113 29.1499 77.9692 35.8423 82.2056 45.6848C84.206 50.3716 85.02 55.4662 84.5778 60.5309C84.5778 60.8029 84.5778 61.0749 84.5778 61.6505C87.3587 59.2914 89.745 56.5164 91.6492 53.4273C93.4173 50.3765 94.8052 47.127 95.7828 43.7492C98.7849 54.9012 96.9463 65.1675 89.4506 74.036C81.6013 83.3408 71.2771 87.1235 58.7863 85.9217C59.9242 84.6565 60.9592 83.5559 61.8592 82.392C68.5642 73.726 70.9556 64.0479 68.9306 53.2945C67.7731 47.572 65.2231 42.2109 61.4992 37.6704C60.9849 37.0378 60.6056 37.0378 60.0078 37.6324C55.1144 42.5517 51.7529 48.7455 50.3199 55.4831C49.5236 58.9423 49.3064 62.5061 49.6771 66.0341C51.0656 77.9135 56.9028 87.1425 67.3106 93.4111C69.5478 94.7584 72.0292 95.7073 74.6135 96.9408C74.2386 97.1079 73.8492 97.2412 73.4499 97.3393C65.4026 98.4317 57.2224 96.679 50.3653 92.3932C43.5082 88.1074 38.419 81.5665 36.0035 73.9347C34.6816 69.9242 34.2433 65.6826 34.7178 61.4924C34.7117 61.1744 34.6817 60.8572 34.6278 60.5436Z" fill="#EE272D"/>
</svg>
