<svg width="120" height="120" viewBox="0 0 120 120" fill="none" xmlns="http://www.w3.org/2000/svg">
<path d="M59.9791 88.497C54.5097 88.5433 49.0497 88.0597 43.6855 87.0539C37.3726 85.8221 31.24 83.9647 25.5507 81.0201C20.8662 78.5982 16.628 75.6397 13.3947 71.5662C9.80676 67.0673 8.16055 62.0818 9.41959 56.4429C10.1821 53.0311 11.9377 50.0532 14.3198 47.395C17.2753 44.0639 20.9312 41.5058 24.927 39.3787C30.2794 36.5258 36.016 34.6267 41.9891 33.3755C49.6871 31.7461 57.5952 31.1738 65.4675 31.6765C71.121 31.9999 76.7198 32.9062 82.163 34.3792C88.7065 36.2033 94.8982 38.7224 100.36 42.6597C103.753 45.1094 106.673 47.9427 108.635 51.5574C110.902 55.6865 111.703 59.9714 110.314 64.5843C108.925 69.1972 106.017 72.8425 102.272 75.9484C98.5956 78.9931 94.3929 81.2314 89.9035 83.0777C85.6136 84.8183 81.1409 86.1296 76.5594 86.9899C73.3852 87.5961 70.1401 87.927 66.9127 88.2328C64.6163 88.4386 62.2903 88.408 59.9791 88.497ZM61.0047 86.3476C63.4341 86.1446 66.8625 85.8471 70.2938 85.5746C74.1832 85.2632 77.9781 84.4624 81.7079 83.4531C86.0134 82.3168 90.1603 80.7039 94.0618 78.6483C97.9542 76.5796 101.451 74.0771 104.232 70.7766C106.723 67.8181 108.322 64.5176 108.464 60.6359C108.621 56.2816 106.957 52.5862 104.155 49.269C100.821 45.3123 96.4972 42.5457 91.7536 40.3157C84.9087 37.0903 77.5968 35.2829 70.0396 34.4766C62.6501 33.6454 55.1757 33.7455 47.8144 34.7741C41.0581 35.7417 34.5472 37.4045 28.4116 40.2517C24.1616 42.2231 20.2603 44.67 17.027 47.9817C14.7336 50.334 12.913 52.9866 12.0766 56.0758C10.6964 61.1976 11.9465 65.8689 15.2389 70.0981C18.821 74.7027 23.6916 77.7668 29.0499 80.1887C33.9413 82.3964 39.0986 83.8451 44.4392 84.8127C49.5906 85.7331 54.7745 86.1113 61.0165 86.3365L61.0047 86.3476Z" fill="#0C458E"/>
<path d="M60.721 84.1677C54.544 84.1204 48.899 83.6977 43.3516 82.6022C37.3667 81.4205 31.5799 79.6632 26.2629 76.7631C22.3676 74.6415 18.886 72.0612 16.3118 68.477C12.1741 62.7297 12.5938 55.9229 17.0063 50.5286C19.6663 47.2837 23.0592 44.8925 26.8156 42.9183C30.3499 41.0935 34.1007 39.6674 37.9903 38.6696C41.8807 37.6734 45.844 36.9485 49.8477 36.5008C54.8041 35.9113 59.7693 35.9002 64.7345 36.0865C68.7172 36.2623 72.6779 36.744 76.5772 37.5268C82.1926 38.6112 87.5952 40.2601 92.6491 42.8098C97.1917 45.1205 101.273 47.9566 104.031 52.1775C107.471 57.4355 107.438 62.7436 104.096 68.0266C101.988 71.3633 98.9443 73.8185 95.5248 75.8733C90.3291 78.9847 84.6338 80.9033 78.6785 82.2352C72.5813 83.6004 66.4221 84.0481 60.721 84.1677ZM52.8712 47.2726C53.0523 47.3728 53.2421 47.4584 53.4386 47.5284C55.8681 48.1902 56.6453 49.7529 56.5774 52.0496C56.3941 58.2029 56.3764 64.3646 56.2818 70.5207C56.2523 72.4671 55.4602 73.9269 53.3441 74.5192C53.0497 74.5699 52.7886 74.7283 52.6181 74.9597C52.4475 75.191 52.3812 75.4765 52.4338 75.7537C52.4781 76.2403 52.4958 76.7325 52.5284 77.2608C53.016 77.3081 53.35 77.3692 53.6869 77.372C57.9192 77.4017 62.1554 77.4267 66.3955 77.4471C67.8733 77.4471 68.0742 77.169 68.0092 75.8066C67.9737 75.0864 67.5334 74.9335 66.9275 74.7277C65.0833 74.1049 64.0193 73.0594 64.1021 70.8655C64.241 67.2091 64.1937 63.5499 64.2469 59.8907C64.2912 56.6041 64.368 53.3175 64.4212 50.0309C64.4567 47.9483 64.4774 45.8601 64.5129 43.7803C64.5129 43.0629 64.3267 42.39 63.4666 42.3677C62.3938 42.3205 61.2264 42.2092 60.2599 42.5401C57.7389 43.3993 55.3036 44.4865 52.8712 45.4597V47.2726ZM68.4644 55.7143C69.0968 55.7449 69.5342 55.7811 69.9717 55.7839C78.1347 55.8599 86.2988 55.9312 94.4638 55.998C96.8991 56.0146 98.9295 54.1628 99.1748 51.6158L72.8207 51.2766C72.8207 50.5064 72.8207 49.9197 72.8207 49.3302C72.8346 49.2258 72.8246 49.1198 72.7916 49.0192C72.7586 48.9186 72.7032 48.8258 72.6291 48.747C72.555 48.6681 72.464 48.6049 72.362 48.5617C72.26 48.5184 72.1494 48.496 72.0375 48.4961C70.876 48.4516 69.7145 48.4961 68.4614 48.4961L68.4644 55.7143ZM52.5963 51.132L21.2681 50.7344C21.3893 51.9078 22.0041 52.6474 22.5035 53.4148C23.3577 54.7273 24.5428 55.3223 26.2895 55.3195C33.1256 55.3195 39.9646 55.4613 46.8036 55.5503C48.3759 55.5725 49.9512 55.6059 51.5324 55.6309C52.0762 55.6309 52.5668 55.503 52.5845 54.908C52.6229 53.7207 52.5963 52.5278 52.5963 51.132ZM68.2604 62.9883C68.8308 63.0272 69.3096 63.08 69.7884 63.0884C73.2316 63.1467 76.6777 63.2079 80.1326 63.2441C83.4812 63.2774 86.8298 63.3164 90.1813 63.2941C92.4334 63.2941 94.5199 61.2282 94.5288 58.9648C93.9998 58.9648 93.4707 58.9648 92.9417 58.9648C87.7716 58.9092 82.6034 58.8545 77.4372 58.8008C74.7773 58.7757 72.1173 58.8008 69.4574 58.7285C68.6417 58.7118 68.2604 58.962 68.2752 59.7378C68.2811 60.7499 68.2722 61.762 68.2722 62.9883H68.2604ZM52.4131 58.4671C49.3335 58.4671 46.3957 58.4671 43.458 58.4671C40.5202 58.4671 37.547 58.4226 34.6092 58.4198C31.6715 58.417 28.7751 58.189 25.6748 58.3586C26.0374 59.4224 26.6155 60.41 27.3771 61.2671C27.7332 61.7363 28.2074 62.1153 28.7571 62.37C29.3069 62.6248 29.9152 62.7474 30.5277 62.7269C37.2633 62.7714 43.9988 62.8659 50.7314 62.9354C51.2575 62.9354 51.7836 62.8909 52.4131 62.8631V58.4671ZM31.7779 68.7134C32.2175 70.1783 33.0847 71.498 34.2812 72.5227C34.8387 72.9867 35.5648 73.2307 36.3086 73.204C38.9183 73.204 41.528 73.2624 44.1377 73.2707C44.6246 73.298 45.1117 73.221 45.5623 73.0455C47.6311 72.0528 49.6408 71.0101 51.6594 69.9619C51.9402 69.8145 52.3303 69.5531 52.351 69.3196C52.49 67.7652 52.49 66.2026 52.351 64.6482C51.8368 64.8735 51.5294 64.9902 51.2398 65.1348C49.1148 66.197 47.0134 67.2981 44.8618 68.3102C44.2122 68.6121 43.4997 68.7754 42.7752 68.7885C39.6247 68.8051 36.4741 68.744 33.3177 68.7106L31.7779 68.7134ZM68.1954 66.2693C68.157 67.312 68.0949 68.2157 68.0979 69.1277C68.0979 70.4179 68.1629 70.5541 69.484 70.4902C71.3194 70.4012 72.8178 70.9907 74.1803 72.0723C74.7024 72.4917 75.2724 72.8554 75.8797 73.1567C76.3487 73.3987 76.8681 73.5419 77.4018 73.5766C79.6095 73.6294 81.835 73.6544 84.0309 73.5766C84.7109 73.5707 85.372 73.3656 85.9224 72.9899C87.1049 72.0853 87.9718 70.8678 88.4109 69.4947C88.0353 69.3944 87.6519 69.3219 87.2642 69.2778C85.6446 69.2306 84.0132 69.1054 82.4054 69.2111C79.4233 69.4057 76.6422 68.9998 74.2689 67.173C72.4484 65.7855 70.3825 66.3694 68.1954 66.2693Z" fill="#0C458E"/>
</svg>
