<svg width="120" height="120" viewBox="0 0 120 120" fill="none" xmlns="http://www.w3.org/2000/svg">
<path d="M59.9552 94.3262C53.1301 94.3364 46.3294 93.4869 39.7051 91.7966C33.2961 90.2275 27.1705 87.6203 21.5576 84.0726C16.7516 80.9637 12.5088 77.1982 9.54267 72.1455C5.38126 65.1166 4.8118 57.7724 8.22854 50.2351C10.3249 45.6007 13.5852 41.9446 17.44 38.7907C23.1908 34.0919 29.749 31.0667 36.7201 28.8782C41.6913 27.3831 46.7927 26.3914 51.9515 25.9173C56.8997 25.4078 61.8829 25.3648 66.8387 25.7886C71.5891 26.1533 76.2988 26.9503 80.9124 28.1702C87.1303 29.7704 93.0688 32.3544 98.5155 35.8298C102.858 38.6812 106.776 42.0476 109.698 46.4954C113.766 52.6939 115.161 59.3687 112.965 66.6486C111.59 70.9382 109.204 74.8105 106.019 77.9192C101.163 82.8818 95.3804 86.2868 89.0413 88.8615C83.5738 91.0986 77.8522 92.6126 72.0139 93.3672C68.0152 93.8821 63.9914 94.1331 59.974 94.5L59.9552 94.3262ZM112.32 53.4341L112.351 53.241C112.295 53.1895 112.251 53.1122 112.189 53.0929L103.96 50.6019C102.283 50.0935 100.656 49.5463 99.5793 47.9436C97.3083 44.7347 94.4621 42.0016 91.1939 39.8913C86.1072 36.5738 80.4782 34.2316 74.5796 32.9784C69.3781 31.8129 64.0642 31.2622 58.7412 31.337C49.8489 31.4207 41.3258 33.1715 33.3284 37.278C27.8529 40.0909 23.0657 43.7598 19.6427 49.1022C17.8978 51.7514 16.8067 54.798 16.4637 57.9784C15.9506 63.1277 17.49 67.6334 20.3123 71.7786C23.2346 76.0461 27.127 79.1743 31.5324 81.6524C37.3277 84.8404 43.6455 86.9004 50.168 87.7286C55.4826 88.5168 60.8709 88.6335 66.2129 88.0762C72.3831 87.4325 78.3029 85.8749 83.6095 82.4313C86.2878 80.6934 88.5532 78.5306 89.8297 75.441C90.5574 73.8463 90.7083 72.0368 90.2552 70.3379C89.8022 68.6389 88.7749 67.1619 87.3579 66.1722C85.1323 64.5909 82.5438 63.6347 79.8486 63.398C76.0812 62.9242 72.292 62.6556 68.497 62.5935C59.83 62.5098 51.1568 62.5935 42.4898 62.6707C39.9867 62.6707 38.0405 61.7503 36.9079 59.3365C36.2821 58.0492 35.6062 56.7168 34.9617 55.4101C34.6551 54.7987 34.3359 54.1872 33.9855 53.4341H112.32Z" fill="url(#paint0_radial_450_6607)"/>
<defs>
<radialGradient id="paint0_radial_450_6607" cx="0" cy="0" r="1" gradientUnits="userSpaceOnUse" gradientTransform="translate(60 73.5) rotate(-90) scale(52.5 82.1739)">
<stop offset="0.0658188" stop-color="#5A5F65"/>
<stop offset="0.209887" stop-color="#484A51"/>
<stop offset="0.640194" stop-color="#4C4F56"/>
<stop offset="1" stop-color="#8A929C"/>
</radialGradient>
</defs>
</svg>
