<svg width="120" height="120" viewBox="0 0 120 120" fill="none" xmlns="http://www.w3.org/2000/svg">
<path d="M62.4803 33C64.2585 33.0954 67.6141 33.2466 70.9653 33.4612C76.3319 33.8048 81.6244 34.6381 86.8525 35.8525C90.5343 36.7077 94.1333 37.8282 97.5896 39.3236C100.589 40.6213 103.436 42.1893 106.022 44.1854C107.856 45.6008 109.519 47.1662 110.849 49.0343C112.729 51.6737 113.85 54.5652 113.986 57.8172C114.096 60.4284 113.55 62.8572 112.243 65.1235C111.31 66.7413 110.152 68.2079 108.855 69.5694C106.304 72.2451 103.399 74.4939 100.231 76.4527C96.2778 78.897 92.0364 80.7027 87.5937 82.1151C82.4398 83.7536 77.1531 84.8288 71.7938 85.5277C67.6155 86.0726 63.4123 86.4818 59.2073 86.7818C54.4221 87.1232 49.6214 87.0752 44.8468 86.5586C40.5357 86.0919 36.2633 85.3667 32.0717 84.2667C29.9928 83.7211 27.9147 83.1444 25.8913 82.4341C22.018 81.0743 18.3769 79.2581 15.1233 76.7809C12.9728 75.1436 11.0271 73.3017 9.38649 71.166C6.28969 67.134 5.21492 62.6964 6.58637 57.8048C7.28838 55.3009 8.68893 53.1492 10.4682 51.222C13.2294 48.231 16.5128 45.8775 20.039 43.8175C22.8042 42.2021 25.6858 40.8198 28.6804 39.6443C35.6885 36.8933 42.9755 35.1753 50.4166 33.9878C53.8908 33.4333 57.3803 33.0987 62.4803 33ZM86.2968 41.844C85.4314 41.4656 84.6766 41.0723 83.8783 40.7978C81.157 39.8615 78.2996 39.5873 75.4566 39.2691C73.7699 39.0803 72.0785 38.8954 70.3838 38.8179C67.6221 38.6915 64.8538 38.5529 62.0928 38.614C60.0991 38.6582 58.1147 39.0361 56.1224 39.2271C55.4244 39.2941 54.8293 39.538 54.3093 39.9593C52.5351 41.3966 51.2083 43.1502 50.3592 45.2425C49.1781 48.1534 49.4284 50.8991 51.3934 53.4213C52.6299 55.0085 54.2955 55.9297 56.3676 55.7971C57.8809 55.7002 59.3961 55.4192 60.8751 55.0773C63.9969 54.3555 67.059 53.4179 69.9697 52.0969C72.6264 50.891 75.2686 49.6438 77.8473 48.2899C80.7602 46.7605 83.297 44.7125 85.6947 42.5066C85.8816 42.3345 86.0378 42.131 86.2968 41.844ZM35.6424 79.7292C35.9321 79.8291 36.083 79.8885 36.2382 79.9334C38.6437 80.6314 41.1114 81.0393 43.6025 81.2539C46.4317 81.4977 49.2712 81.6438 52.1088 81.7824C55.1823 81.9325 58.261 81.9146 61.315 81.5276C63.2394 81.2836 65.1477 80.8986 67.0468 80.5022C67.4676 80.4143 67.9321 80.0895 68.1828 79.7424C69.5954 77.7869 70.6917 75.667 71.169 73.3113C71.6788 70.796 71.6821 68.3046 70.3508 65.9631C69.3822 64.2593 67.4005 63.2537 65.5816 63.5896C64.722 63.7483 63.8642 63.9223 63.0151 64.1263C59.1703 65.0502 55.4596 66.3276 51.8911 68.0084C49.5989 69.0879 47.4477 70.3868 45.4501 71.8944C42.3981 74.1975 39.4338 76.6102 36.4369 78.9816C36.1824 79.1828 35.9629 79.4255 35.6424 79.7292ZM41.5333 41.2491C41.2172 41.2821 41.0654 41.2768 40.9263 41.3153C39.5136 41.7067 38.0971 42.087 36.6929 42.5055C33.3838 43.4916 30.1733 44.7253 27.1661 46.392C25.1352 47.5177 23.1671 48.7535 21.2021 49.9867C18.2415 51.8447 15.8828 54.2742 14.0992 57.2238C12.6575 59.608 12.031 62.1352 12.6791 64.8882C13.273 67.4118 14.5416 69.5434 16.4798 71.3318C18.3515 73.0589 20.4975 74.3713 22.785 75.4975C23.1465 75.6754 23.3442 75.6376 23.4717 75.2555C23.6124 74.8336 23.7845 74.4217 23.9306 74.0016C25.6148 69.159 27.6262 64.4427 30.0167 59.8933C31.8055 56.4892 33.7402 53.1529 35.7206 49.8487C37.0307 47.6629 38.5308 45.5835 39.9575 43.4641C40.4331 42.7575 40.945 42.0737 41.5333 41.2491ZM81.4059 77.0738C81.7474 77.0335 81.9112 77.0266 82.0693 76.9935C83.1317 76.7712 84.2185 76.6203 85.2494 76.3012C87.5181 75.5989 89.789 74.8857 91.9999 74.0328C93.6587 73.3928 95.2915 72.633 96.8123 71.7308C98.1007 70.9664 99.2463 69.9597 100.394 68.9922C102.167 67.4978 103.85 65.9059 104.991 63.8801C105.455 63.0558 105.737 62.135 106.204 61.3122C107.205 59.5471 107.34 57.6551 107.204 55.7141C107.134 54.7269 106.919 53.7638 106.345 52.9233C105.725 52.017 105.11 51.1029 104.423 50.2449C102.937 48.3883 101.212 46.7885 99.0108 45.7232C98.6006 45.5246 98.3836 45.5935 98.217 45.9928C97.8306 46.9177 97.4455 47.8438 97.0299 48.7565C95.9052 51.2259 94.8406 53.7245 93.6123 56.145C91.9556 59.41 90.2334 62.6477 88.4176 65.832C86.7953 68.6772 85.0158 71.4387 83.2885 74.2273C82.7236 75.1396 82.1047 76.0207 81.4059 77.0738Z" fill="#093F88"/>
</svg>
