<svg width="120" height="120" viewBox="0 0 120 120" fill="none" xmlns="http://www.w3.org/2000/svg">
<path d="M59.9829 92.9488C47.6022 93.1225 35.7659 90.6725 24.6904 84.9603C18.7564 81.8984 13.4855 78.0137 9.77868 72.2427C4.307 63.7358 4.80899 54.0213 11.0812 46.0354C16.3283 39.356 23.2795 35.2281 30.997 32.1957C38.9178 29.0831 47.1399 27.5334 55.6182 27.114C68.4401 26.4915 80.8049 28.3804 92.5593 33.7346C99.6347 36.9594 105.844 41.3224 110.206 47.9804C112.631 51.6862 114.076 55.7713 113.997 60.2358C113.92 64.5293 112.538 68.4782 110.232 72.1038C106.089 78.6202 100.002 82.7187 93.2595 85.9488C84.686 90.058 75.5974 92.2382 66.1547 92.9275C64.1071 93.0771 62.041 92.9488 59.9829 92.9488ZM16.8514 52.4156C16.611 53.169 16.3547 53.8236 16.1989 54.4995C14.5661 61.5877 16.1513 68.0213 20.2016 73.8938C23.5807 78.7965 28.4395 81.8931 33.5175 84.6797C35.0419 85.5187 36.614 86.2828 38.2283 87.1004L52.3923 59.8137L16.8514 52.4156ZM81.7243 87.1485C83.8247 86.0263 85.8538 85.011 87.8274 83.8782C93.3599 80.7309 98.3481 76.9824 101.415 71.1366C104.351 65.5259 105.22 59.6988 103.503 53.5404C103.289 52.7736 103.03 52.3995 102.044 52.6079C92.3982 54.6491 82.7362 56.6156 73.0821 58.614C71.2908 58.9854 69.5127 59.4156 67.5603 59.8671L81.7243 87.1485ZM55.2457 51.8625C56.7807 44.1358 58.2814 36.572 59.8138 28.8693C59.3144 28.8693 59.0212 28.8693 58.7226 28.8693C50.9497 29.214 43.3987 30.5632 36.2652 33.8441C30.0432 36.7056 24.376 40.3579 20.3786 46.1449C19.1659 47.9056 18.1328 49.7946 16.8726 51.8625H55.2457ZM60.1229 28.8266C60.3158 29.8231 60.4664 30.63 60.6249 31.4342C61.8931 37.817 63.1745 44.1972 64.4083 50.5881C64.5932 51.5446 64.9605 51.8785 65.9645 51.8785C76.8946 51.8785 87.8248 51.9346 98.7576 51.972C100.057 51.972 101.357 51.972 102.76 51.972C102.726 51.7397 102.673 51.5108 102.599 51.2881C100.662 47.2484 98.134 43.6308 94.71 40.7613C84.7811 32.4388 73.0742 29.2621 60.1229 28.8266ZM38.939 87.3034C53.0845 92.1126 66.9077 92.1767 80.9634 87.2794C73.8933 79.7076 66.9896 72.3175 59.9591 64.7858L38.939 87.3034Z" fill="#1C1B1A"/>
</svg>
