<svg width="120" height="120" viewBox="0 0 120 120" fill="none" xmlns="http://www.w3.org/2000/svg">
<path d="M108.703 39C109.187 39 109.671 39 110.153 39.0238C113.075 39.2406 114.752 41.842 113.668 44.4758C113.332 45.2413 112.861 45.9446 112.279 46.5548C103.637 56.1451 94.9981 65.7383 86.3612 75.3344C82.9818 79.0911 78.7392 80.988 73.6066 80.9923C64.7622 80.9923 55.9157 81.0096 47.0624 80.9923C42.0658 80.9793 37.8923 79.1388 34.571 75.4861C33.4899 74.2938 32.414 73.0972 31.3433 71.8962C31.0689 71.5841 30.5693 71.3261 30.7946 70.8123C31.0198 70.2986 31.5619 70.472 31.979 70.472C39.3757 70.4633 46.7724 70.4633 54.1691 70.472C56.0272 70.472 57.8853 70.472 59.7456 70.472C62.2952 70.4503 64.4879 69.5702 66.1764 67.7124C71.0236 62.3796 75.8283 57.0122 80.6531 51.6707C81.0479 51.2372 81.3022 50.7798 81.0145 50.201C80.749 49.6655 80.2627 49.5658 79.7073 49.568C77.6641 49.568 75.6186 49.568 73.5754 49.568C53.1698 49.568 32.7642 49.573 12.3586 49.5832C11.5511 49.5832 10.9823 49.4054 10.4559 48.7681C9.41195 47.5021 8.29219 46.2903 7.15904 45.0958C6.02589 43.9014 5.66676 42.5855 6.33594 41.1006C7.02743 39.5658 8.33457 39 10.0231 39C25.2626 39.0159 40.5051 39.0159 55.7506 39H108.703Z" fill="#3862FD"/>
</svg>
