<svg width="40" height="40" viewBox="0 0 40 40" fill="none" xmlns="http://www.w3.org/2000/svg">
<path d="M33.826 14.8123C33.803 14.4854 33.6743 14.1749 33.4594 13.9279C32.9001 13.2802 31.6449 11.8728 29.8926 10.1165C28.1403 8.36032 26.7421 7.10854 26.0897 6.54182C25.8427 6.32722 25.5332 6.19834 25.2073 6.17438C24.387 6.1121 22.5477 6 20 6C17.4523 6 15.613 6.1121 14.7927 6.17438C14.4677 6.20214 14.1593 6.33055 13.9103 6.54182C13.2579 7.10854 11.8535 8.36032 10.1074 10.1165C8.3613 11.8728 7.08123 13.2989 6.54061 13.9279C6.32165 14.1724 6.19234 14.4843 6.17399 14.8123C6.11185 15.6343 6 17.4778 6 20.0311C6 22.5845 6.11185 24.403 6.17399 25.25C6.19703 25.5787 6.32565 25.8912 6.54061 26.1406C7.08123 26.7633 8.29294 28.1521 10.1074 29.952C11.9219 31.7518 13.2579 32.96 13.9103 33.5205C14.1465 33.7384 14.4696 33.8007 14.7927 33.8256C15.613 33.8879 17.4523 34 20 34C22.5477 34 24.387 33.8879 25.2073 33.8256C25.5304 33.8007 25.8349 33.7384 26.0897 33.5205C26.7421 32.96 28.1465 31.702 29.8926 29.952C31.6387 28.202 32.9188 26.7633 33.4594 26.1406C33.6744 25.8912 33.803 25.5787 33.826 25.25C33.8881 24.403 34 22.5036 34 20.0311C34 17.5587 33.8881 15.6593 33.826 14.8123ZM32.7261 24.8826C32.702 25.1605 32.596 25.4249 32.4217 25.6424C31.9245 26.2028 30.8247 27.4795 29.1158 29.1673C27.407 30.855 26.158 31.9822 25.5739 32.4804C25.357 32.6552 25.0931 32.7614 24.8158 32.7856C24.0639 32.8479 22.3737 32.96 19.9814 32.96C17.589 32.96 15.8926 32.8479 15.1407 32.7856C14.8634 32.7614 14.5995 32.6552 14.3826 32.4804C13.7985 31.9822 12.4811 30.8176 10.8407 29.1673C9.20018 27.5169 8.03196 26.2028 7.53484 25.6424C7.36046 25.4249 7.25448 25.1605 7.23036 24.8826C7.16822 24.1228 7.05637 22.3479 7.05637 20.0311C7.05637 17.7144 7.16822 15.9395 7.23036 15.1797C7.25115 14.9085 7.35783 14.651 7.53484 14.4448C8.0071 13.8843 9.13182 12.6077 10.8407 10.895C12.5495 9.18238 13.7985 8.08007 14.3826 7.58185C14.5995 7.40708 14.8634 7.30087 15.1407 7.27669C15.8926 7.21441 17.5828 7.10854 19.9814 7.10854C22.3799 7.10854 24.0639 7.21441 24.8158 7.27669C25.0931 7.30087 25.357 7.40708 25.5739 7.58185C26.158 8.08007 27.4754 9.25089 29.1158 10.895C30.7563 12.5391 31.9245 13.8594 32.4217 14.4448C32.596 14.6623 32.702 14.9267 32.7261 15.2046C32.7883 15.9644 32.9001 17.6521 32.9001 20.0561C32.9001 22.3479 32.7883 24.1228 32.7261 24.8826Z" fill="#CD1316"/>
<path d="M31.1665 17.3906C31.1478 16.4626 31.0857 15.6343 31.0422 15.4413C30.9987 15.379 30.8868 15.2482 30.8433 15.1797C30.0479 14.2705 29.2277 13.3861 28.1465 12.3025C26.0089 10.1788 24.8593 9.1637 24.5797 8.97064C24.3622 8.94573 23.9769 8.90214 22.9143 8.85854C22.0755 8.81495 21.0129 8.79627 20.9321 8.79627C20.9321 8.98933 20.9072 23.0391 20.9321 31.0543V31.2473C20.9321 31.2473 23.3928 31.2722 24.5797 31.0979C25.3999 30.4066 26.9348 28.9555 28.0781 27.8283C29.2215 26.7011 30.3276 25.4867 30.5886 25.1877C30.6942 25.0569 30.9552 24.7954 31.0608 24.6023C31.1665 24.4093 31.0857 24.3221 31.1043 24.0356C31.1913 22.6281 31.2099 20.0996 31.2099 20.0125H27.3262V21.9617H29.2028C29.2028 22.0053 29.1594 23.5623 29.1159 23.8238C29.0724 24.0854 28.7492 24.2349 28.5131 24.4902C28.277 24.7456 27.842 25.2064 27.0404 26.0285C26.0462 27.0685 24.474 28.5196 23.7781 29.1486C23.7781 29.0614 23.7594 11.0694 23.7781 10.895C23.9521 11.0445 24.4057 11.4555 24.5175 11.5676C25.3564 12.3648 26.245 13.1931 26.9783 13.9279C28.0346 15.0303 29.0972 16.1762 29.1407 16.2633C29.1842 16.3505 29.2028 17.3034 29.2028 17.3906H31.1665Z" fill="#CD1316"/>
<path d="M16.2219 31.1601V17.0231C16.2406 16.6121 16.2219 14.3826 16.2219 14.3826C16.2219 14.3826 16.1971 14.4884 16.1536 14.5133C15.7248 15.6593 15.2028 16.8488 14.7306 18.1254C14.103 19.7509 13.5189 21.4199 13.0653 22.6717L13.0218 22.6281L11.7044 20.2927L10.7723 18.6673V20.8096C10.7972 22.5845 10.8407 24.0169 10.9277 25.5552C10.9277 25.7482 11.0147 26.8505 11.0147 26.8505C11.0147 26.8505 10.3622 26.2028 10.0391 25.8354C9.43631 25.1877 9.21883 24.9448 8.95784 24.6023C8.8522 23.4315 8.79006 22.1299 8.80871 19.645C8.82735 17.1601 8.9392 15.6593 8.9392 15.4662C8.9392 15.4413 8.91434 15.4413 9.00134 15.3354C9.17533 15.1174 10.0391 14.1459 10.2566 13.9466L10.387 13.8407C10.387 13.8407 10.4927 14.0151 10.561 14.1023C10.9277 14.6441 11.5988 15.8336 12.2202 16.8924C12.593 17.54 12.6303 17.5836 12.6303 17.5836C12.6303 17.5836 13.1274 16.089 14.3391 13.081C15.2712 10.7891 16.1784 8.92705 16.1971 8.85854C16.2157 8.79004 16.9552 8.81495 17.6884 8.79626C18.4217 8.77758 19.0306 8.77135 19.0928 8.77135V31.2286H18.8131C17.7071 31.2473 16.5016 31.1851 16.2219 31.1601Z" fill="#CD1316"/>
</svg>
