<svg width="120" height="120" viewBox="0 0 120 120" fill="none" xmlns="http://www.w3.org/2000/svg">
<path d="M105.385 73.0585C104.512 73.178 103.641 73.3647 102.764 73.4051C99.669 73.5478 97.5906 74.7802 96.1067 77.8032C90.1475 89.945 80.3269 97.1399 67.1863 99.7911C50.8123 103.095 32.8608 94.5875 24.9 79.7617C24.5711 79.1489 24.1567 78.5604 23.9517 77.9063C22.8932 74.5296 20.3743 73.467 17.1595 73.3794C16.3878 73.3585 15.6217 73.1237 14.8528 72.9876C14.8789 72.7305 14.9047 72.4734 14.9308 72.2163C18.428 72.2163 21.9249 72.2163 25.6569 72.2163C28.4665 79.9744 33.389 86.4157 40.605 90.9862C59.6462 103.046 84.6729 95.204 93.5133 74.3301C94.3149 72.4369 95.1962 71.6487 97.2791 71.8128C99.9578 72.0242 102.666 71.8642 105.361 71.8642C105.369 72.2626 105.377 72.6607 105.385 73.0585Z" fill="black"/>
<path d="M105.358 47.9891C102.026 47.9891 98.6901 48.0708 95.3662 47.9063C94.8315 47.8798 94.1733 46.8325 93.8705 46.127C88.7217 34.1352 79.8272 26.757 67.1709 23.951C50.6853 20.2959 32.8753 29.7275 26.534 45.6139C25.794 47.4679 24.9553 48.1866 22.9753 47.9894C20.9211 47.7849 18.8296 47.9869 16.7557 47.9428C16.1147 47.9292 15.4784 47.6916 14.8399 47.5566C14.8562 47.3286 14.8725 47.1003 14.8885 46.8723C16.0294 46.6635 17.171 46.2784 18.3116 46.2804C21.2752 46.2858 22.6543 44.548 23.929 42.0962C31.655 27.2342 43.9942 19.3645 60.5825 19.5018C75.9691 19.6292 87.8353 26.9384 95.279 40.5412C97.4364 44.4835 99.7147 46.7087 104.123 46.6186C104.554 46.6098 104.991 46.8952 105.426 47.0441C105.403 47.3594 105.381 47.6741 105.358 47.9891Z" fill="black"/>
<path d="M70.2894 56.5828C67.7015 56.5828 65.1083 56.4856 62.5292 56.6342C61.5985 56.6879 60.7015 57.3312 59.789 57.7053C60.6636 58.0347 61.5214 58.5785 62.4162 58.6492C64.3103 58.7983 66.2238 58.6763 68.1289 58.7102C70.2521 58.7481 71.3771 60.0646 71.4062 62.0098C71.4374 64.0754 70.3242 65.4818 68.0599 65.4976C64.6933 65.5213 61.3265 65.5038 57.8817 65.5038C57.3633 63.9824 57.6709 63.3089 59.2725 63.3464C61.7827 63.4055 64.3013 63.4541 66.8034 63.297C67.5552 63.2498 68.2635 62.504 68.9917 62.0779C68.2329 61.6722 67.4982 60.9845 66.7109 60.9167C64.7332 60.7464 62.7302 60.902 60.7402 60.8413C58.548 60.7746 57.0775 59.4021 57.2749 57.5109C57.4838 55.5078 58.6155 54.389 60.7351 54.4133C63.5061 54.4449 66.2816 54.335 69.0466 54.4672C69.6815 54.4975 70.2815 55.2654 70.8979 55.6937C70.6948 55.9898 70.4921 56.2861 70.2894 56.5828Z" fill="black"/>
<path d="M38.7423 64.7175C39.3227 64.266 39.8832 63.4591 40.4867 63.4249C43.0745 63.2786 45.6809 63.4551 48.2671 63.2952C48.9678 63.252 49.622 62.4429 50.2978 61.9852C49.6231 61.6136 48.9672 60.9715 48.2701 60.9217C46.2036 60.7748 44.1201 60.8692 42.0437 60.8545C39.9516 60.8398 38.8168 59.7885 38.7967 57.66C38.7762 55.5083 39.9415 54.455 42.0168 54.4341C45.2087 54.4016 48.4008 54.4256 51.6479 54.4256C52.2642 55.9202 52.0175 56.629 50.3639 56.5932C47.9421 56.5406 45.514 56.5008 43.0986 56.6347C42.4391 56.6711 41.8149 57.3495 41.1745 57.7332C41.7894 58.0535 42.3909 58.6143 43.0221 58.6505C45.0923 58.7689 47.1743 58.6519 49.2496 58.7101C51.5467 58.7748 53.0197 60.1863 52.8405 62.2383C52.6546 64.3694 51.4376 65.5215 49.2429 65.5156C45.9585 65.5066 42.6741 65.5133 39.39 65.5133C39.1735 65.2481 38.9579 64.9828 38.7423 64.7175Z" fill="black"/>
<path d="M12 54.6711C14.0565 53.966 15.5163 54.5607 16.8765 56.1134C18.7429 58.2442 20.8151 60.1917 23.2667 62.6952C23.2667 59.5797 23.2667 57.1122 23.2667 54.5341C24.2074 54.5341 24.8639 54.5341 25.672 54.5341C25.672 58.1357 25.672 61.6724 25.672 65.2548C23.6887 65.9651 22.253 65.3164 20.911 63.7846C19.0328 61.6405 16.9764 59.6552 14.5262 57.1147C14.5262 60.2264 14.5262 62.681 14.5262 65.3419C13.547 65.389 12.8426 65.4229 12 65.4636C12 61.725 12 58.1886 12 54.6711Z" fill="black"/>
<path d="M108 66.3375C106.121 65.3072 104.621 64.7819 103.504 63.8098C101.286 61.8779 99.2786 59.6993 96.8376 57.2795C96.8376 60.1491 96.8376 62.6712 96.8376 65.193C96.5718 65.3868 96.306 65.5806 96.0401 65.7745C95.4642 65.1998 94.4228 64.6509 94.3903 64.0462C94.222 60.928 94.312 57.7954 94.312 54.7096C96.3918 54.0129 97.7767 54.5048 99.1013 56.0019C101.041 58.1946 103.215 60.1773 105.772 62.7314C105.772 60.207 105.836 58.2488 105.752 56.2969C105.681 54.6432 106.231 53.9883 108 54.641C108 58.1367 108 61.6778 108 66.3375Z" fill="black"/>
<path d="M90.4954 66.0568C85.3326 62.6422 80.1855 62.1932 75.0622 66.0709C74.934 65.7615 74.8059 65.4522 74.6777 65.1428C76.8254 61.679 78.8774 58.1461 81.2364 54.8351C81.5477 54.3984 84.0023 54.6738 84.4793 55.3378C86.7349 58.4763 88.6481 61.8649 90.6833 65.1643C90.6207 65.4618 90.5582 65.7593 90.4954 66.0568ZM80.0074 61.1615C81.9786 61.1615 83.5279 61.1615 85.3312 61.1615C84.396 59.6355 83.644 58.4085 82.6757 56.8284C81.717 58.3848 80.9308 59.6618 80.0074 61.1615Z" fill="black"/>
<path d="M33.6073 54.7542C33.6073 58.2194 33.6073 61.6843 33.6073 65.1444C31.4714 65.5275 31.4215 65.528 31.3996 63.8456C31.3657 61.2305 31.318 58.609 31.4798 56.0027C31.5199 55.356 32.3421 54.7587 32.8047 54.1388C33.072 54.344 33.3395 54.5491 33.6073 54.7542Z" fill="black"/>
</svg>
