<svg width="120" height="120" viewBox="0 0 120 120" fill="none" xmlns="http://www.w3.org/2000/svg">
<path d="M59.949 104.957C56.8375 104.958 53.7224 104.871 50.6159 104.995C49.0317 105.058 48.0784 104.542 47.3147 103.176C40.9361 91.7692 34.4933 80.3975 28.1129 68.991C26.8671 66.7639 25.8876 64.3896 24.6371 62.1654C23.8264 60.7233 23.7732 59.4677 24.5707 58.0091C31.0646 46.1279 37.4977 34.2142 44.0009 22.338C45.1691 20.2047 46.5068 18.1524 47.9121 16.1643C48.313 15.5973 49.2239 15.0724 49.9075 15.0638C56.6679 14.9807 63.4301 14.9786 70.1905 15.0585C70.8698 15.0667 71.8067 15.5973 72.1766 16.1704C80.9918 29.8193 88.7332 44.0617 95.7483 58.6938C96.115 59.4591 96.0687 60.7176 95.6894 61.4932C88.6904 75.8019 81.0794 89.7814 72.6598 103.323C71.909 104.53 71.081 105.033 69.6409 104.988C66.4134 104.887 63.1801 104.956 59.949 104.957ZM70.1931 16.1069C63.2053 16.1069 56.6291 16.0798 50.0541 16.1561C49.5016 16.1625 48.7846 16.752 48.4398 17.2663C47.0841 19.2886 45.7467 21.3355 44.5818 23.4695C38.3527 34.8797 32.1591 46.3094 26.0004 57.757C24.9206 59.7636 25.1684 60.0539 27.4304 60.0557C32.0359 60.0589 36.6442 59.9641 41.2458 60.0985C43.3389 60.1598 44.511 59.3264 45.5175 57.5947C51.2495 47.7344 57.0501 37.9133 62.8669 28.1019C65.1906 24.182 67.615 20.3206 70.1931 16.1069ZM94.417 60.0561C94.5697 59.8738 94.722 59.6916 94.8747 59.5094C87.9526 44.6676 80.0107 30.3756 71.0563 16.3326C67.9896 22.4143 65.0462 28.1736 62.2113 33.9849C61.9074 34.6079 61.9631 35.6856 62.3094 36.2968C66.4982 43.6862 70.7728 51.0281 75.0263 58.3814C75.712 59.5668 76.7017 60.0939 78.1231 60.0771C82.7289 60.0225 87.3355 60.0568 91.9421 60.0568C92.7668 60.0561 93.5919 60.0561 94.417 60.0561ZM60.0912 38.8195C59.5046 39.711 59.1652 40.1771 58.8767 40.6728C55.5256 46.4249 52.2248 52.207 48.8054 57.9189C47.9836 59.2918 48.0525 60.3428 48.8424 61.6751C52.2693 67.4533 55.6021 73.2867 58.9777 79.0948C59.2561 79.5738 59.6009 80.0145 60.0151 80.6201C60.393 80.123 60.6315 79.869 60.8021 79.5763C64.3932 73.4147 68.0187 67.2718 71.5038 61.0514C71.8979 60.3481 71.8128 59.0294 71.4058 58.2919C68.9362 53.8189 66.311 49.4305 63.7333 45.0163C62.6036 43.0817 61.4634 41.1535 60.0912 38.8195Z" fill="url(#paint0_angular_450_6825)"/>
<defs>
<radialGradient id="paint0_angular_450_6825" cx="0" cy="0" r="1" gradientUnits="userSpaceOnUse" gradientTransform="translate(60 63) rotate(86.3086) scale(46.5967 37.2773)">
<stop offset="0.0179414" stop-color="#5A5F65"/>
<stop offset="0.209887" stop-color="#484A51"/>
<stop offset="0.640194" stop-color="#4C4F56"/>
<stop offset="1" stop-color="#8A929C"/>
</radialGradient>
</defs>
</svg>
