<svg width="120" height="120" viewBox="0 0 120 120" fill="none" xmlns="http://www.w3.org/2000/svg">
<path d="M105 60.0489C104.857 85.2105 84.6379 105.156 59.4345 104.999C34.7585 104.845 14.8109 84.4419 15.0014 59.4996C15.1829 35.7372 34.2822 14.7 60.532 15.0032C86.1212 15.2987 104.944 35.9434 105 60.0489ZM103.893 59.97C103.819 35.6515 84.1678 16.0146 59.9529 16.0706C35.2422 16.1278 15.6945 36.3764 16.0661 60.697C16.4281 84.3863 35.8186 104.022 60.2374 103.931C84.3272 103.842 103.966 84.0922 103.893 59.97Z" fill="#000B0A"/>
<path d="M100.735 60.0104C100.734 82.5763 82.481 100.794 59.8955 100.773C37.4276 100.751 19.1803 82.4361 19.2122 59.9386C19.2439 37.4212 37.489 19.2346 60.0209 19.2606C82.58 19.2869 100.737 37.4591 100.735 60.0104ZM59.9677 97.2389C80.4844 97.2468 97.1593 80.6065 97.1799 60.1032C97.2007 39.4609 80.6607 22.8388 60.0574 22.7962C39.4855 22.7539 22.7618 39.4102 22.7454 59.9576C22.7288 80.4996 39.4337 97.2309 59.9677 97.2389Z" fill="#000B0A"/>
<path d="M47.273 48.0985C46.352 47.3035 45.6077 46.5387 44.7474 45.9407C41.7527 43.8593 38.7335 41.8121 35.6904 39.8022C34.5395 39.0421 34.4753 38.9677 35.3861 37.9145C37.4551 35.5228 39.8755 33.5639 42.5386 31.8582C43.7094 31.1084 44.6273 31.1487 45.7829 31.84C49.5028 34.0651 52.9819 36.5939 56.1373 39.5706C57.2275 40.5989 58.4271 41.4397 60.4348 41.2032C58.7666 39.0671 57.3327 37.0201 55.6774 35.1715C54.0823 33.39 52.2458 31.8261 50.5469 30.1352C50.2324 29.8222 49.8256 29.3026 49.9007 28.981C49.9769 28.6541 50.563 28.3382 50.9833 28.2168C54.6282 27.1647 58.3509 26.6817 62.1381 27.013C62.8924 27.079 63.7458 27.4093 64.3225 27.8932C71.1269 33.602 75.1511 40.9615 76.6804 49.635C77.6683 55.2381 77.4276 60.8841 76.2156 66.4589C75.6686 68.9751 75.0127 71.4673 74.4292 73.9757C74.1136 75.3328 74.733 76.0393 76.0743 76.0123C77.0002 75.9935 77.1517 75.4278 77.1842 74.6986C77.2726 72.7285 77.3585 72.6649 79.3517 73.1057C82.5917 73.822 85.4413 75.3038 87.9072 77.5174C88.7914 78.3112 88.7861 78.7974 87.8956 79.6025C85.2586 81.9869 82.169 83.4748 78.6916 84.1568C77.4962 84.3914 77.1966 84.1006 77.1822 82.8407C77.1641 81.2351 77.0857 81.1538 75.489 81.1536C65.8199 81.1525 56.1506 81.1328 46.4815 81.1866C45.5825 81.1917 44.6555 81.5919 43.7949 81.9403C42.3245 82.5357 41.2049 83.9349 39.3954 83.7765C38.5165 83.6994 37.6227 83.7227 36.7402 83.7759C36.0281 83.8186 35.6155 83.5398 35.2058 82.9594C33.3997 80.4016 31.5068 77.905 29.7124 75.3392C29.3744 74.8559 29.0883 74.0725 29.252 73.5874C29.3769 73.2175 30.2463 72.9147 30.7922 72.9019C33.6322 72.835 36.4752 72.8521 39.3164 72.8871C39.8485 72.8937 40.4132 73.0348 40.9021 73.251C42.6551 74.0255 44.3563 74.9241 46.1336 75.6333C46.7353 75.8734 47.6681 75.9397 48.1486 75.6251C48.5523 75.3609 48.7356 74.3965 48.6466 73.797C47.5228 66.2316 43.1244 61.2554 36.1428 58.5208C33.826 57.6134 31.3458 57.1103 28.9222 56.4926C27.5282 56.1373 27.1763 55.7391 27.4213 54.3291C28.0048 50.969 29.0527 47.7691 30.6351 44.736C31.1781 43.6954 31.8888 43.3133 32.9626 43.7193C36.3005 44.9814 39.6195 46.2937 42.9652 47.5343C44.052 47.9372 45.192 48.2057 46.323 48.4719C46.5433 48.524 46.833 48.281 47.273 48.0985ZM61.8591 68.0071C61.8622 70.3191 63.6752 72.1683 65.9608 72.1907C68.2603 72.2133 70.1745 70.2901 70.1647 67.9668C70.1552 65.6684 68.3245 63.8289 66.0325 63.8147C63.6648 63.7999 61.8558 65.617 61.8591 68.0071Z" fill="#009037"/>
</svg>
