<svg width="120" height="120" viewBox="0 0 120 120" fill="none" xmlns="http://www.w3.org/2000/svg">
<path d="M96.0324 63.26C96.0845 63.198 96.1716 63.0833 96.2708 62.9798C97.8919 61.2825 98.0411 59.1427 96.6483 57.2261C95.6099 55.7979 94.245 54.7492 92.733 53.8894C89.041 51.7902 85.0616 50.5152 80.922 49.7275C78.71 49.3052 76.498 48.8534 74.268 48.5652C71.8067 48.2474 69.3284 48.0332 66.851 47.9013C64.1724 47.7581 61.4838 47.6871 58.8021 47.7236C56.3048 47.7592 53.8104 47.9764 51.315 48.1185C51.1669 48.1464 51.0212 48.1864 50.8794 48.2383L104.831 72.4447C104.611 72.6193 104.481 72.732 104.342 72.8305C99.391 76.3347 93.9556 78.7557 88.1488 80.3941C83.7263 81.6358 79.2122 82.5144 74.6505 83.0212C71.9849 83.3258 69.3113 83.5937 66.6337 83.7176C62.7545 83.8973 58.8672 84.0445 54.986 83.9876C52.3114 83.949 49.6348 83.6069 46.9752 83.2862C42.7987 82.782 38.6623 81.9811 34.5964 80.8895C29.5476 79.5353 24.66 77.7426 20.0258 75.2901C17.1018 73.74 14.3751 71.8885 12.0149 69.5314C10.3577 67.8777 8.97985 66.018 8.18377 63.7757C6.9451 60.2877 7.42976 56.9805 9.3103 53.861C9.89108 52.8967 10.604 52.0155 11.2349 51.0816C11.4532 50.7598 11.6565 50.7548 11.9869 50.905C15.8241 52.6436 19.6649 54.3747 23.5095 56.0983C23.6587 56.1653 23.7979 56.2567 24.0001 56.3694C23.876 56.5653 23.7818 56.7358 23.6687 56.8901C22.0906 59.0361 22.2378 61.3962 24.0752 63.3219C25.7655 65.0943 27.8443 66.2779 30.0433 67.2423C34.3611 69.1344 38.8993 70.2501 43.5425 70.8967C46.4605 71.3027 49.3984 71.6611 52.3374 71.7971C56.4329 71.9869 60.5395 71.9839 64.641 71.9869C66.1431 71.9869 67.6541 71.7748 69.2613 71.6509L15.2303 47.5419V47.3389C15.8852 46.8892 16.523 46.4131 17.1969 45.9949C21.709 43.184 26.5806 41.2238 31.6595 39.7621C36.3388 38.415 41.1102 37.54 45.9318 36.9431C48.343 36.6436 50.7723 36.4711 53.1976 36.2995C54.9579 36.1787 56.7263 36.1483 58.4917 36.0965C59.7935 36.0539 61.0952 35.9595 62.39 36.0193C65.5683 36.1645 68.7466 36.3371 71.9179 36.5868C75.6299 36.8791 79.2958 37.5156 82.9327 38.3125C87.9395 39.4048 92.8041 40.9376 97.4754 43.0835C100.792 44.6062 103.909 46.4629 106.681 48.8595C108.714 50.6177 110.445 52.65 111.521 55.1786C113.061 58.7975 112.739 62.3129 110.869 65.7013C110.303 66.7276 109.555 67.6514 108.904 68.632C108.686 68.9609 108.451 68.9984 108.103 68.8421C104.972 67.448 101.838 66.0607 98.701 64.6801C98.0431 64.3888 97.3863 64.0974 96.7424 63.7787C96.4981 63.6518 96.2938 63.4518 96.0324 63.26Z" fill="url(#paint0_angular_450_6908)"/>
<defs>
<radialGradient id="paint0_angular_450_6908" cx="0" cy="0" r="1" gradientUnits="userSpaceOnUse" gradientTransform="translate(10.5 46.5) rotate(-6.34019) scale(95.0815 137.422)">
<stop offset="0.0332265" stop-color="#727981"/>
<stop offset="0.0658188" stop-color="#5A5F65"/>
<stop offset="0.209887" stop-color="#484A51"/>
<stop offset="0.640194" stop-color="#4C4F56"/>
<stop offset="1" stop-color="#8A929C"/>
</radialGradient>
</defs>
</svg>
