<svg width="120" height="120" viewBox="0 0 120 120" fill="none" xmlns="http://www.w3.org/2000/svg">
<path d="M15.0041 59.9056C15.0445 34.8144 35.0083 15.0938 60.1921 15.0003C84.2113 14.9114 105.791 34.896 104.978 61.4906C104.238 85.7041 84.0694 105.75 58.5108 104.978C33.8373 104.233 14.677 83.7304 15.0041 59.9056ZM18.7869 59.9766C18.8334 82.7886 37.3154 101.213 60.112 101.173C82.7241 101.134 101.196 82.5658 101.172 59.8999C101.148 37.2573 82.5899 18.7699 59.9267 18.8123C37.2052 18.855 18.7407 37.3301 18.7869 59.9766Z" fill="#2058AF"/>
<path d="M70.9401 73.2887C69.2425 69.5145 67.6611 65.8543 65.9227 62.2704C65.6272 61.6612 64.6765 61.0417 63.9974 61.0047C61.3403 60.8598 58.6688 61.0021 56.006 60.9212C54.851 60.8861 54.3354 61.3591 53.8988 62.365C52.3152 66.0141 50.6381 69.6228 48.8729 73.5179C45.3918 65.7917 42.0412 58.3566 38.6912 50.9215C37.3913 48.036 36.0647 45.1621 34.8204 42.253C34.6057 41.7506 34.4849 40.9061 34.7552 40.5464C36.9352 37.6472 39.5137 35.1562 42.7729 33.181C45.5459 39.3196 48.2533 45.3131 50.9611 51.3063C51.9517 53.499 52.9992 55.6684 53.9106 57.8931C54.3335 58.9254 54.8895 59.3305 56.025 59.2939C58.6241 59.2103 61.2297 59.2076 63.8284 59.2946C65.0205 59.3347 65.6207 58.9349 66.1068 57.8344C69.3553 50.4793 72.6778 43.1567 75.9759 35.8234C76.3355 35.0235 76.6932 34.2228 77.1477 33.2093C80.5266 35.199 83.1463 37.7826 85.3774 40.7817C85.5608 41.0281 85.4357 41.6312 85.2752 41.9883C80.6547 52.265 76.0113 62.531 71.3672 72.797C71.3176 72.9053 71.2063 72.9858 70.9401 73.2887Z" fill="#2058AF"/>
<path d="M29.3358 52.5267C34.6446 64.3063 39.953 76.0863 45.3244 88.0048C35.6101 83.9983 24.8972 69.7388 29.3358 52.5267Z" fill="#2058AF"/>
<path d="M90.756 52.2772C94.6783 66.6405 87.0411 82.2806 74.5966 88.0533C80.0377 76.007 85.3225 64.3059 90.756 52.2772Z" fill="#2058AF"/>
<path d="M68.8184 29.3702C65.8681 35.9028 62.9899 42.2763 59.9653 48.9737C56.9372 42.2725 54.0662 35.9184 51.1228 29.4041C57.0596 27.6418 62.816 27.6852 68.8184 29.3702Z" fill="#2058AF"/>
<path d="M51.3641 90.3901C54.1699 84.1704 56.9768 77.9475 59.9607 71.3333C62.9224 77.8998 65.7511 84.1707 68.5805 90.4439C64.4134 92.286 54.6302 92.2151 51.3641 90.3901Z" fill="#2058AF"/>
</svg>
