<svg width="40" height="40" viewBox="0 0 40 40" fill="none" xmlns="http://www.w3.org/2000/svg">
<path fill-rule="evenodd" clip-rule="evenodd" d="M17.9151 12.5505C21.2267 12.3945 24.5643 12.5925 27.819 13.2476C30.1259 13.7253 32.4117 14.4282 34.4812 15.5881C35.3746 16.1079 36.2289 16.7208 36.9263 17.4963C37.5791 18.2339 38.0692 19.1975 37.992 20.2139C37.9058 21.3012 37.2466 22.2401 36.4801 22.9611C35.1527 24.1722 33.5204 24.9791 31.8598 25.6069C30.0804 26.2661 28.2295 26.7091 26.3608 27.0094C23.6483 27.4425 20.8927 27.5811 18.1517 27.4557C15.001 27.3155 11.8415 26.865 8.84281 25.8478C6.89764 25.1763 4.94921 24.3199 3.4251 22.8844C2.64557 22.1188 1.97089 21.1074 2.00097 19.9631C2.00097 18.8931 2.61061 17.941 3.3365 17.2125C4.48426 16.0947 5.90026 15.3035 7.36097 14.6897C10.7083 13.3161 14.3247 12.7361 17.9151 12.5505ZM16.1935 13.7459C17.5705 14.179 18.9182 14.7103 20.2887 15.1665C20.596 15.2655 20.93 15.2697 21.2389 15.174C22.724 14.7549 24.2262 14.3968 25.7023 13.9472C25.0277 13.8919 24.3619 13.7583 23.6873 13.7088C22.0111 13.5223 20.322 13.5149 18.6386 13.5495C17.8225 13.5916 16.9999 13.604 16.1935 13.7459ZM10.1279 14.9999C10.1239 15.0114 10.1158 15.0345 10.1117 15.0461C11.5602 16.0691 13.0185 17.0764 14.4702 18.0936C14.7751 18.2859 15.0441 18.5515 15.3961 18.6538C15.7082 18.7627 16.0407 18.7784 16.3683 18.7726C18.7491 18.7677 21.13 18.7792 23.5109 18.7668C23.9449 18.7726 24.3506 18.5895 24.7074 18.3543C26.4209 17.2315 28.1417 16.1211 29.8544 14.9974C29.2944 14.8019 28.7254 14.6212 28.1466 14.495C25.8657 15.235 23.5914 15.9998 21.3137 16.7505C21.03 16.8429 20.726 16.9263 20.4293 16.852C20.0554 16.7621 19.714 16.5773 19.362 16.4255C17.5664 15.6351 15.7798 14.8233 13.9809 14.0412C12.6738 14.2442 11.3806 14.5692 10.1279 14.9999ZM5.02318 18.1811C4.41516 18.9483 4.15993 20.0448 4.55335 20.9704C5.00286 22.1444 6.03194 22.938 7.04883 23.5857C8.77616 22.2747 10.4791 20.9325 12.1991 19.6116C12.3495 19.4912 12.5356 19.346 12.5365 19.1323C12.5519 18.9351 12.4007 18.7858 12.2698 18.6645C11.0741 17.6292 9.87515 16.5987 8.68187 15.5609C7.32033 16.1879 5.95391 16.9634 5.02318 18.1811ZM28.0499 18.4525C27.832 18.6612 27.5362 18.8287 27.4541 19.1422C27.4411 19.4211 27.6922 19.5885 27.8816 19.7428C29.5504 21.0207 31.1981 22.3275 32.875 23.5914C33.1839 23.4644 33.4448 23.2392 33.7204 23.0511C34.5585 22.41 35.3559 21.5776 35.5819 20.501C35.7843 19.5514 35.3608 18.5878 34.7422 17.8907C33.822 16.8528 32.6043 16.1367 31.3525 15.5889C30.2601 16.5525 29.1529 17.5005 28.0499 18.4525ZM14.8442 20.1471C12.6007 21.4877 10.3474 22.8135 8.10799 24.1615C8.73308 24.4569 9.3663 24.7382 10.0247 24.9477C10.1905 24.9238 10.3434 24.8496 10.5019 24.7984C13.1558 23.8975 15.8107 22.9958 18.4655 22.0965C18.7077 22.0206 18.9572 21.9348 19.2149 21.9596C19.5059 21.981 19.7685 22.1213 20.0343 22.2302C22.4948 23.3159 24.9578 24.3991 27.4167 25.4881C27.5475 25.5343 27.6817 25.644 27.828 25.5896C29.2212 25.2381 30.608 24.8075 31.8915 24.1458C29.6382 22.8093 27.389 21.4662 25.1342 20.1314C24.7472 19.893 24.3002 19.7659 23.8466 19.7725C21.3007 19.7676 18.7556 19.7725 16.2098 19.7692C15.7318 19.7725 15.2522 19.888 14.8442 20.1471ZM11.9756 25.5409C13.6574 25.9542 15.3717 26.2257 17.0966 26.3618C20.0009 26.5771 22.9378 26.5004 25.8096 25.9938C24.0051 25.3957 22.2184 24.7398 20.4212 24.117C19.8538 23.9272 19.2661 23.6112 18.654 23.7927C16.4284 24.376 14.1988 24.9477 11.9756 25.5409Z" fill="black"/>
</svg>
