<svg width="120" height="120" viewBox="0 0 120 120" fill="none" xmlns="http://www.w3.org/2000/svg">
<path d="M36.0094 12.1096C37.4182 12.1096 38.6497 11.9154 39.8084 12.142C45.6113 13.2243 50.9397 16.1291 55.0518 20.452C56.0532 21.4461 56.8407 22.6427 57.364 23.9655C57.8873 25.2883 58.1349 26.7082 58.091 28.1343C57.977 39.3503 58.0466 50.5663 58.053 61.7888C58.0285 62.4337 58.0731 63.0793 58.1859 63.7142C58.2664 64.1444 58.4962 64.5303 58.833 64.8009C59.1699 65.0715 59.5911 65.2085 60.0189 65.1866C60.4211 65.2098 60.8178 65.0833 61.1356 64.8304C61.4534 64.5775 61.6708 64.2155 61.7475 63.8113C61.9022 63.1327 61.9735 62.437 61.9596 61.7403C61.9596 50.3075 62.0039 38.8746 61.9406 27.4386C61.8774 25.2633 62.6241 23.1445 64.03 21.5102C68.4242 16.3488 73.9992 13.2972 80.5461 12.0837C81.2263 11.9935 81.9138 11.9761 82.5975 12.0319C83.042 12.0729 83.4839 12.1399 83.9209 12.2326C83.9525 12.8183 84 13.3425 84 13.8668C84 42.3933 84 70.9198 84 99.4463C84 101.501 83.1991 102.805 81.5243 103.74C78.4187 105.472 75.0154 106.21 71.5837 106.818C64.9198 107.969 58.1429 108.281 51.4048 107.747C48.0933 107.504 44.785 107.064 41.6382 105.902C40.3548 105.422 39.124 104.806 37.9659 104.064C37.3263 103.673 36.8051 103.109 36.4598 102.434C36.1145 101.759 35.9586 100.999 36.0094 100.239C36.0347 99.2683 36.0094 98.2975 36.0094 97.3267V12.1096ZM80.6474 27.2412C77.9628 26.2704 76.649 27.0567 76.3514 29.6326C76.2734 30.3849 76.2385 31.1413 76.2469 31.8978C76.2754 43.1688 76.2817 54.4366 76.383 65.7044C76.383 67.5101 75.7499 68.6168 74.167 69.1313C72.7652 69.6083 71.3343 69.991 69.8836 70.2769C64.7645 71.225 59.5916 71.1506 54.4313 70.8529C51.6517 70.6911 48.8626 70.3642 46.216 69.3481C44.0474 68.5165 43.6833 67.989 43.6833 65.672C43.6833 54.4539 43.6781 43.2357 43.6675 32.0175C43.7105 31.2136 43.6904 30.4074 43.6074 29.6067C43.5107 28.9224 43.2722 28.267 42.9077 27.6845C42.2999 26.7849 41.0082 26.5519 39.8844 26.9143C38.7605 27.2768 39.2512 28.2314 39.153 28.9595C39.1291 29.2826 39.1291 29.6072 39.153 29.9303L39.343 77.4996C39.343 80.357 39.4221 83.2177 39.3208 86.0718C39.2734 87.3662 39.7324 88.1202 40.8594 88.5247C42.7589 89.1978 44.5951 90.0262 46.5326 90.4663C54.0229 92.1814 61.5955 92.23 69.184 91.2559C72.4868 90.8815 75.719 90.0193 78.7796 88.6962C80.1472 88.0846 80.7012 87.2724 80.6981 85.6576C80.6474 66.7917 80.6474 47.9225 80.6474 29.0469V27.2412Z" fill="#C01D19"/>
</svg>
