<svg width="44" height="45" viewBox="0 0 44 45" fill="none" xmlns="http://www.w3.org/2000/svg">
<g clip-path="url(#clip0_45_656)">
<g clip-path="url(#clip1_45_656)">
<g clip-path="url(#clip2_45_656)">
<path d="M32.5405 22.6928C32.5392 23.2644 32.7108 23.8235 33.0336 24.2994C33.3563 24.7752 33.8156 25.1465 34.3535 25.3661C34.8913 25.5858 35.4835 25.6439 36.0551 25.5331C36.6265 25.4224 37.1518 25.1477 37.5642 24.744C37.9766 24.3403 38.2576 23.8255 38.3717 23.265C38.4858 22.7044 38.428 22.1233 38.2053 21.595C37.9827 21.0668 37.6053 20.6153 37.121 20.2976C36.6367 19.9799 36.0672 19.8103 35.4847 19.8103C34.705 19.8103 33.9571 20.1138 33.4051 20.6541C32.8532 21.1946 32.5423 21.9277 32.5405 22.6928ZM37.1282 22.6928C37.1294 23.0135 37.0336 23.3273 36.8528 23.5946C36.672 23.8618 36.4144 24.0703 36.1126 24.1936C35.8109 24.317 35.4785 24.3495 35.1579 24.2872C34.8372 24.225 34.5426 24.0706 34.3115 23.8439C34.0803 23.6171 33.923 23.328 33.8596 23.0134C33.7961 22.6988 33.8294 22.3727 33.9551 22.0766C34.0807 21.7805 34.2932 21.5277 34.5655 21.3503C34.8379 21.1729 35.1578 21.0788 35.4847 21.0801C35.9206 21.0801 36.3386 21.25 36.6468 21.5524C36.955 21.8549 37.1282 22.265 37.1282 22.6928Z" fill="#0039A6"/>
<path d="M8.48929 19.8103C7.90857 19.8115 7.34122 19.9817 6.85898 20.2992C6.37674 20.6166 6.00122 21.0673 5.77987 21.594C5.55852 22.1208 5.50127 22.7002 5.61534 23.2589C5.72942 23.8176 6.00972 24.3307 6.42081 24.7331C6.8319 25.1357 7.35535 25.4095 7.92503 25.5202C8.49468 25.631 9.08504 25.5735 9.62146 25.3551C10.1578 25.1368 10.6162 24.7674 10.9387 24.2934C11.2613 23.8196 11.4334 23.2626 11.4334 22.6928C11.4317 21.9277 11.1207 21.1946 10.5688 20.6541C10.0168 20.1138 9.269 19.8103 8.48929 19.8103ZM8.48929 24.3054C8.16453 24.3041 7.84735 24.2085 7.57796 24.0305C7.30853 23.8525 7.09888 23.6003 6.97548 23.3055C6.85207 23.0107 6.82045 22.6866 6.8846 22.3742C6.94874 22.0618 7.10578 21.7751 7.33588 21.5502C7.566 21.3253 7.85888 21.1723 8.1775 21.1107C8.49612 21.0489 8.82627 21.0812 9.12615 21.2034C9.42611 21.3257 9.68245 21.5324 9.86277 21.7974C10.043 22.0625 10.1393 22.3741 10.1393 22.6928C10.1393 22.905 10.0966 23.1152 10.0136 23.3113C9.93059 23.5074 9.80891 23.6855 9.65559 23.8353C9.50235 23.9851 9.32036 24.1038 9.12024 24.1844C8.92004 24.2652 8.70565 24.3062 8.48929 24.3054Z" fill="#0039A6"/>
<path d="M42.3241 13.5118H39.8977C39.4537 13.5135 39.0285 13.6873 38.7145 13.9953C38.4005 14.3033 38.2235 14.7206 38.2217 15.1562V16.6864L37.6588 16.7752L35.433 11.2452V11.1881C34.989 10.3446 34.317 9.63729 33.4908 9.14345C32.6645 8.64961 31.7157 8.38832 30.7483 8.38818H13.2777C12.3113 8.38984 11.3638 8.65105 10.538 9.1435C9.71216 9.63595 9.0395 10.3408 8.59297 11.1817V11.2452L6.36706 16.7688L5.77823 16.6864V15.1435C5.77314 14.7101 5.59453 14.2961 5.28098 13.9908C4.96742 13.6855 4.54408 13.5135 4.10236 13.5118H1.67588C1.23416 13.5135 0.810814 13.6855 0.497258 13.9908C0.183702 14.2961 0.00509369 14.7101 0 15.1435V16.2102C0.00171179 16.6452 0.179033 17.0618 0.493136 17.3688C0.807241 17.6758 1.23253 17.8482 1.67588 17.8482H4.94353C4.00593 18.4602 3.23668 19.2897 2.70394 20.2632C2.1712 21.2367 1.89142 22.3241 1.88941 23.429V29.5939C1.88438 29.9763 1.98149 30.3533 2.17107 30.6875C2.36065 31.0217 2.63609 31.3013 2.97 31.4986V34.8191C2.97171 35.2541 3.14903 35.6708 3.46313 35.9778C3.77724 36.2848 4.20253 36.4572 4.64588 36.4572H8.41174C8.85515 36.4572 9.28043 36.2848 9.5945 35.9778C9.90865 35.6708 10.0859 35.2541 10.0877 34.8191V31.7843H33.88V34.7874C33.8808 35.0055 33.9258 35.2212 34.0125 35.4221C34.0991 35.623 34.2256 35.8049 34.3846 35.9574C34.5435 36.1098 34.7318 36.2297 34.9384 36.3101C35.1451 36.3904 35.366 36.4296 35.5883 36.4254H39.3541C39.7975 36.4254 40.2228 36.253 40.5369 35.946C40.851 35.639 41.0283 35.2224 41.03 34.7874V31.4668C41.3655 31.2708 41.6427 30.9916 41.8335 30.6573C42.0242 30.323 42.122 29.9452 42.117 29.5621V23.429C42.1149 22.3234 41.8344 21.2354 41.3004 20.2618C40.7665 19.2881 39.9957 18.459 39.0564 17.8482H42.3564C42.7942 17.8399 43.2113 17.6639 43.5184 17.3578C43.8255 17.0517 43.9984 16.6397 44 16.2102V15.1435C43.9949 14.7101 43.8163 14.2961 43.5027 13.9908C43.1892 13.6855 42.7659 13.5135 42.3241 13.5118ZM9.70587 11.7341C10.0441 11.1052 10.5505 10.5786 11.1706 10.2106C11.7907 9.84263 12.5012 9.6472 13.2259 9.64529H30.6964C31.4213 9.64651 32.1321 9.84164 32.7523 10.2097C33.3726 10.5778 33.8788 11.1048 34.2164 11.7341L36.2612 16.8133L35.9636 16.7816C35.9075 16.7785 35.8514 16.7785 35.7953 16.7816C35.6078 16.7721 35.4198 16.7721 35.2323 16.7816H8.70297C8.51757 16.7721 8.33185 16.7721 8.14645 16.7816C8.08394 16.7785 8.02135 16.7785 7.95884 16.7816L7.68058 16.8133L9.70587 11.7341ZM4.48412 16.5784H1.67588C1.62606 16.5793 1.57656 16.5704 1.53027 16.5523C1.48399 16.5341 1.44186 16.5071 1.40632 16.4728C1.37078 16.4385 1.34255 16.3976 1.32329 16.3526C1.30403 16.3074 1.29411 16.259 1.29412 16.2102V15.1435C1.29748 15.0464 1.33917 14.9544 1.4104 14.8868C1.48164 14.8193 1.57683 14.7816 1.67588 14.7816H4.10236C4.2036 14.7816 4.3007 14.8211 4.3723 14.8913C4.44389 14.9616 4.48412 15.0569 4.48412 15.1562V16.5784ZM8.79355 34.7874C8.79355 34.8362 8.78361 34.8847 8.76435 34.9298C8.74508 34.9748 8.71686 35.0157 8.68135 35.05C8.64577 35.0843 8.60367 35.1113 8.55739 35.1294C8.51112 35.1476 8.46158 35.1564 8.41174 35.1556H4.64588C4.54575 35.1556 4.44961 35.117 4.3782 35.0481C4.30678 34.9792 4.26582 34.8856 4.26412 34.7874V31.7843H8.79355V34.7874ZM39.7035 34.7874C39.7045 34.8365 39.6951 34.8853 39.6762 34.9308C39.6573 34.9763 39.6291 35.0175 39.5933 35.052C39.5576 35.0865 39.5151 35.1134 39.4684 35.1313C39.4217 35.1491 39.3718 35.1573 39.3217 35.1556H35.5883C35.4881 35.1556 35.3919 35.117 35.3205 35.0481C35.2492 34.9792 35.2082 34.8856 35.2064 34.7874V31.7843H39.7359L39.7035 34.7874ZM40.7647 23.429V29.5939C40.7665 29.7158 40.7432 29.8368 40.6963 29.9497C40.6493 30.0626 40.5797 30.165 40.4915 30.251C40.4034 30.3368 40.2985 30.4045 40.1831 30.4498C40.0677 30.495 39.9443 30.517 39.82 30.5145H4.12177C4.02074 30.5157 3.9202 30.5007 3.82412 30.4701C3.63581 30.4097 3.47179 30.2925 3.35555 30.135C3.23933 29.9777 3.17684 29.7882 3.17706 29.5939V23.429C3.18279 22.3169 3.53651 21.2333 4.19037 20.3249C4.84423 19.4164 5.76669 18.727 6.83294 18.3498C7.42304 18.1444 8.04449 18.0392 8.67058 18.0387H35.2C35.3639 18.0387 35.5257 18.0387 35.6853 18.0387C36.1471 18.0778 36.6018 18.176 37.0377 18.3308H37.0764C38.1519 18.7038 39.0835 19.3939 39.7438 20.3065C40.404 21.2192 40.7605 22.3098 40.7647 23.429ZM42.7059 16.2102C42.7059 16.259 42.6959 16.3074 42.6767 16.3526C42.6575 16.3976 42.6292 16.4385 42.5937 16.4728C42.5582 16.5071 42.516 16.5341 42.4697 16.5523C42.4234 16.5704 42.374 16.5793 42.3241 16.5784H39.5159V15.1435C39.5159 15.0442 39.5561 14.9489 39.6277 14.8787C39.6993 14.8084 39.7964 14.7689 39.8977 14.7689H42.3241C42.4254 14.7689 42.5224 14.8084 42.594 14.8787C42.6657 14.9489 42.7059 15.0442 42.7059 15.1435V16.2102Z" fill="#0039A6"/>
<path d="M13.8082 25.3658H30.1917C30.4937 25.3658 30.7834 25.248 30.9969 25.0385C31.2105 24.8289 31.3305 24.5447 31.3305 24.2483C31.3305 23.3357 30.961 22.4604 30.3033 21.815C29.6456 21.1697 28.7535 20.8071 27.8235 20.8071H16.1764C15.2474 20.8088 14.3571 21.1721 13.7007 21.8173C13.0444 22.4624 12.6758 23.3367 12.6758 24.2483C12.675 24.3947 12.7036 24.5399 12.7602 24.6755C12.8167 24.811 12.9 24.9343 13.0052 25.0381C13.1104 25.1419 13.2355 25.2243 13.3733 25.2806C13.5111 25.3368 13.6589 25.3658 13.8082 25.3658ZM16.1764 22.077H27.8235C28.3829 22.0787 28.921 22.2877 29.3301 22.662C29.7392 23.0363 29.9891 23.5485 30.0299 24.0959H13.9699C14.0107 23.5485 14.2606 23.0363 14.6698 22.662C15.0789 22.2877 15.617 22.0787 16.1764 22.077Z" fill="#0039A6"/>
<path d="M31.3495 27.4797H12.6495C12.4779 27.4797 12.3132 27.5466 12.1919 27.6657C12.0706 27.7848 12.0024 27.9463 12.0024 28.1146C12.0024 28.283 12.0706 28.4445 12.1919 28.5636C12.3132 28.6827 12.4779 28.7495 12.6495 28.7495H31.3495C31.5211 28.7495 31.6857 28.6827 31.807 28.5636C31.9284 28.4445 31.9965 28.283 31.9965 28.1146C31.9965 27.9463 31.9284 27.7848 31.807 27.6657C31.6857 27.5466 31.5211 27.4797 31.3495 27.4797Z" fill="#0039A6"/>
</g>
</g>
</g>
<defs>
<clipPath id="clip0_45_656">
<rect width="44" height="44" fill="white" transform="translate(0 0.339844)"/>
</clipPath>
<clipPath id="clip1_45_656">
<rect width="44" height="44" fill="white" transform="translate(0 0.339844)"/>
</clipPath>
<clipPath id="clip2_45_656">
<rect width="44" height="28.8276" fill="white" transform="translate(0 7.92603)"/>
</clipPath>
</defs>
</svg>
