<svg width="40" height="30" viewBox="0 0 40 30" fill="none" xmlns="http://www.w3.org/2000/svg">
<g clip-path="url(#clip0_45_663)">
<g clip-path="url(#clip1_45_663)">
<path d="M10.0935 22.8401C11.6446 22.8401 12.9373 21.6279 12.9373 20.0901C12.9373 18.5523 11.6446 17.3401 10.0935 17.3401C8.54238 17.3401 7.24976 18.5523 7.24976 20.0901C7.24976 21.6279 8.54238 22.8401 10.0935 22.8401Z" stroke="#0039A6"/>
<path d="M1 28.3398V28.8398H1.5H39H39.5V28.3398V5.83984C39.5 4.50702 38.9483 3.23313 37.9733 2.29717C36.9991 1.36188 35.6819 0.839844 34.3125 0.839844H6.1875C4.81813 0.839844 3.50094 1.36188 2.52667 2.29717C1.55171 3.23313 1 4.50702 1 5.83984V28.3398ZM6.1875 4.83984H34.3125C34.6007 4.83984 34.8732 4.94995 35.0711 5.13988C35.2682 5.32913 35.375 5.58137 35.375 5.83984V8.33984H5.125V5.83984C5.125 5.58137 5.23177 5.32913 5.42891 5.13988C5.62675 4.94995 5.89927 4.83984 6.1875 4.83984ZM5.125 24.8398V12.3398H35.375V24.8398H5.125Z" stroke="#0039A6"/>
</g>
</g>
<defs>
<clipPath id="clip0_45_663">
<rect width="40" height="29" fill="white" transform="translate(0 0.339844)"/>
</clipPath>
<clipPath id="clip1_45_663">
<rect width="40" height="29" fill="white" transform="translate(0 0.339844)"/>
</clipPath>
</defs>
</svg>
