<svg width="45" height="45" viewBox="0 0 45 45" fill="none" xmlns="http://www.w3.org/2000/svg">
<g clip-path="url(#clip0_45_681)">
<g clip-path="url(#clip1_45_681)">
<g clip-path="url(#clip2_45_681)">
<path d="M44.2358 29.552L43.8567 16.1748C43.8209 14.9043 42.5547 13.7662 41.1891 13.7662C41.176 13.7662 41.1628 13.7664 41.1497 13.7665C40.4818 13.7772 38.304 14.1412 38.3199 18.3742L38.3477 25.641C38.3486 25.895 38.3247 26.1378 38.2748 26.3725C38.1875 26.2424 38.0863 26.1187 37.9714 26.0037C37.0483 25.0807 35.5352 25.07 34.5265 25.9795C34.5038 25.9999 34.4824 26.0219 34.4628 26.0453C33.2852 27.4375 31.8413 28.6544 30.6811 29.6321C30.276 29.9736 29.8934 30.2961 29.58 30.5786C28.2883 31.7426 28.1163 33.3557 28.1183 34.7802L28.1314 43.9778C28.132 44.3525 28.436 44.6561 28.8107 44.6561L36.2273 44.6561C36.4075 44.6561 36.5803 44.5846 36.7077 44.4572C36.835 44.3297 36.9066 44.157 36.9066 43.9768V39.0722L42.7584 33.2205C43.7642 32.215 44.2751 30.9465 44.2358 29.552ZM35.7469 38.3108C35.6195 38.4382 35.5479 38.611 35.5479 38.7911V43.2977L29.489 43.2976L29.4768 34.7783C29.4751 33.5968 29.5966 32.3925 30.4895 31.5879C30.7861 31.3205 31.1431 31.0196 31.5566 30.6711C32.7453 29.6692 34.2223 28.4245 35.467 26.9615C35.944 26.5562 36.601 26.5547 37.0106 26.9643C37.2158 27.1696 37.3305 27.4623 37.3269 27.7552C37.323 28.0728 37.1792 28.3005 36.9862 28.5379L32.3453 33.1789C32.0799 33.4442 32.08 33.8743 32.3453 34.1396C32.4779 34.2722 32.6517 34.3386 32.8256 34.3386C32.9995 34.3386 33.1734 34.2722 33.306 34.1396L37.9715 29.474C38.195 29.2504 38.3773 28.9802 38.5768 28.7347C39.341 27.7941 39.7105 26.7804 39.7062 25.6358L39.6784 18.369C39.6708 16.3527 40.2289 15.14 41.1714 15.1249C41.1773 15.1248 41.1833 15.1247 41.1891 15.1247C41.8255 15.1247 42.4832 15.6688 42.4985 16.2131L42.8776 29.5903C42.9066 30.6162 42.5433 31.5144 41.7976 32.2598L35.7469 38.3108ZM15.4207 30.579C15.1073 30.2964 14.7246 29.9739 14.3195 29.6325C13.1594 28.6547 11.7155 27.4378 10.5379 26.0456C10.5182 26.0222 10.4968 26.0002 10.4741 25.9797C9.4655 25.0702 7.95234 25.081 7.02934 26.0039C6.9153 26.118 6.81383 26.2414 6.72577 26.3726C6.67593 26.1379 6.65199 25.8951 6.65292 25.6413L6.68069 18.3745C6.69665 14.1414 4.5188 13.7774 3.85096 13.7668C2.47138 13.7415 1.18011 14.8924 1.14386 16.175L0.764805 29.5524C0.72549 30.9466 1.23633 32.2152 2.2422 33.2208L8.09407 39.0726V43.9773C8.09407 44.1574 8.16566 44.3302 8.29304 44.4576C8.42035 44.585 8.59316 44.6566 8.77337 44.6566L16.1899 44.6565C16.5647 44.6565 16.8687 44.3529 16.8692 43.9782L16.8824 34.7805C16.8844 33.3561 16.7124 31.743 15.4207 30.579ZM15.5115 43.2979L9.4526 43.298V38.7913C9.4526 38.6111 9.38101 38.4384 9.25363 38.3109L3.20282 32.2601C2.45729 31.5148 2.09386 30.6166 2.12282 29.5907L2.50187 16.2134C2.51732 15.6691 3.17489 15.125 3.81131 15.125C3.81725 15.125 3.82319 15.125 3.82906 15.1252C4.7715 15.1403 5.32964 16.3531 5.32199 18.3693L5.29423 25.6362C5.28998 26.7806 5.65944 27.7941 6.42365 28.7352C6.62329 28.9808 6.80483 29.2502 7.02943 29.4748L11.6945 34.1399C11.8271 34.2725 12.0009 34.3388 12.1748 34.3388C12.3486 34.3388 12.5225 34.2725 12.6551 34.1399C12.9204 33.8746 12.9205 33.4445 12.6551 33.1791C12.6551 33.1791 8.01748 28.5413 8.01393 28.5378C7.58747 28.1114 7.55775 27.3966 7.98996 26.9646C8.39934 26.5552 9.05639 26.5564 9.53339 26.9618C10.7782 28.4247 12.2552 29.6696 13.4439 30.6715C13.8574 31.0199 14.2143 31.3207 14.511 31.5882C15.4039 32.3929 15.5253 33.5971 15.5236 34.7785L15.5115 43.2979ZM34.8551 13.536C34.8551 6.7235 29.3127 1.18115 22.5003 1.18115C15.6878 1.18115 10.1455 6.7235 10.1455 13.536C10.1455 20.3485 15.6878 25.8908 22.5003 25.8908C29.3127 25.8908 34.8551 20.3485 34.8551 13.536ZM22.5003 24.5322C16.4369 24.5322 11.5041 19.5992 11.5041 13.536C11.5041 7.47269 16.4369 2.53976 22.5003 2.53976C28.5637 2.53976 33.4965 7.47269 33.4965 13.536C33.4965 19.5992 28.5637 24.5322 22.5003 24.5322ZM30.7206 11.039C30.6381 10.7853 30.4148 10.6034 30.1498 10.5738L25.1814 10.0196L23.119 5.4656C23.009 5.22267 22.767 5.0666 22.5002 5.0666C22.2334 5.0666 21.9914 5.22267 21.8813 5.4656L19.819 10.0196L14.8507 10.5738C14.5856 10.6034 14.3623 10.7853 14.2799 11.039C14.1974 11.2927 14.2711 11.5711 14.4682 11.7508L18.162 15.1195L17.1537 20.016C17.0999 20.2772 17.204 20.5458 17.4197 20.7026C17.5382 20.7887 17.6784 20.8323 17.8191 20.8323C17.9345 20.8323 18.0504 20.8029 18.155 20.7434L22.5003 18.2714L26.8454 20.7434C27.0772 20.8752 27.3649 20.8594 27.5806 20.7026C27.7965 20.5458 27.9005 20.2772 27.8467 20.016L26.8384 15.1195L30.5322 11.7508C30.7293 11.571 30.803 11.2927 30.7206 11.039ZM25.6375 14.376C25.4605 14.5375 25.3816 14.7803 25.4299 15.0149L26.2135 18.8208L22.8362 16.8994C22.732 16.8401 22.6162 16.8105 22.5003 16.8105C22.3844 16.8105 22.2686 16.8401 22.1644 16.8994L18.7871 18.8208L19.5707 15.015C19.619 14.7803 19.5401 14.5375 19.3631 14.3761L16.4921 11.7577L20.3538 11.327C20.5919 11.3004 20.7985 11.1504 20.8973 10.9322L22.5003 7.39244L24.1033 10.9321C24.2021 11.1504 24.4086 11.3004 24.6468 11.3269L28.5085 11.7577L25.6375 14.376Z" fill="#0039A6"/>
</g>
</g>
</g>
<defs>
<clipPath id="clip0_45_681">
<rect width="44.2" height="44.2" fill="white" transform="translate(0.399902 0.739746)"/>
</clipPath>
<clipPath id="clip1_45_681">
<rect width="44.2" height="44.2" fill="white" transform="translate(0.399902 0.739746)"/>
</clipPath>
<clipPath id="clip2_45_681">
<rect width="43.4754" height="44.2" fill="white" transform="translate(0.762207 0.739746)"/>
</clipPath>
</defs>
</svg>
