<svg width="45" height="45" viewBox="0 0 45 45" fill="none" xmlns="http://www.w3.org/2000/svg">
<g clip-path="url(#clip0_45_710)">
<g clip-path="url(#clip1_45_710)">
<g clip-path="url(#clip2_45_710)">
<g clip-path="url(#clip3_45_710)">
<path d="M21.9161 43.9558C22.1055 44.0148 22.3027 44.0449 22.501 44.0452C22.6945 44.0448 22.8869 44.0156 23.072 43.9586C25.8883 43.1473 28.5496 41.8676 30.9453 40.1724C31.0876 40.0611 31.1818 39.899 31.2082 39.7197C31.2346 39.5403 31.1913 39.3577 31.0872 39.2098C30.983 39.0618 30.8261 38.9599 30.6491 38.9253C30.472 38.8907 30.2886 38.926 30.1369 39.0239C27.8655 40.6296 25.3425 41.8413 22.6727 42.6087C22.5565 42.6461 22.4316 42.6461 22.3154 42.6087C18.8283 41.6138 15.6035 39.8555 12.8722 37.46C12.8042 37.3928 12.7234 37.3402 12.6345 37.3055C12.5456 37.2707 12.4507 37.2546 12.3554 37.258C12.2601 37.2615 12.1666 37.2845 12.0804 37.3255C11.9943 37.3667 11.9174 37.425 11.8545 37.4969C11.7916 37.569 11.7439 37.6531 11.7145 37.7442C11.685 37.8354 11.6743 37.9316 11.6832 38.0271C11.6921 38.1225 11.7202 38.215 11.7658 38.2992C11.8115 38.3833 11.8739 38.4571 11.9489 38.5162C14.8317 41.0459 18.2354 42.9034 21.9161 43.9558Z" fill="#0039A6"/>
<path d="M3.98522 10.9874C3.89401 10.9751 3.80127 10.9811 3.71233 11.0049C3.62338 11.0285 3.53997 11.0697 3.46684 11.1259C3.39372 11.1821 3.33232 11.2521 3.28617 11.3322C3.24001 11.4122 3.20999 11.5006 3.19783 11.5923C2.70395 15.3039 2.11551 24.8219 7.29945 33.0471C7.34866 33.1252 7.41271 33.1929 7.48793 33.2461C7.56315 33.2994 7.64806 33.3372 7.73783 33.3575C7.82761 33.3778 7.92046 33.38 8.01112 33.3643C8.10177 33.3484 8.18844 33.3148 8.26618 33.2654C8.34391 33.2159 8.41119 33.1515 8.46418 33.0759C8.51716 33.0003 8.55481 32.9149 8.57498 32.8247C8.59514 32.7345 8.59743 32.6411 8.58171 32.55C8.56598 32.4589 8.53256 32.3718 8.48334 32.2936C3.54459 24.4607 4.11272 15.3377 4.58558 11.7789C4.61028 11.594 4.56093 11.4067 4.44836 11.2583C4.33579 11.1099 4.16921 11.0125 3.98522 10.9874Z" fill="#0039A6"/>
<path d="M9.21817 34.5723C9.1464 34.6303 9.08671 34.7019 9.04252 34.7831C8.99832 34.8643 8.97049 34.9534 8.9606 35.0455C8.95071 35.1374 8.95896 35.2305 8.98489 35.3193C9.01082 35.4082 9.0539 35.4909 9.11169 35.563C9.32185 35.825 9.54672 36.0869 9.7779 36.3488C9.83893 36.4182 9.91296 36.4748 9.99576 36.5154C10.0786 36.556 10.1685 36.5797 10.2604 36.5854C10.3524 36.5911 10.4445 36.5785 10.5317 36.5484C10.6188 36.5182 10.6991 36.4711 10.7681 36.4098C10.8371 36.3484 10.8934 36.274 10.9337 36.1908C10.9742 36.1075 10.9979 36.0171 11.0034 35.9247C11.0091 35.8323 10.9966 35.7397 10.9666 35.6521C10.9366 35.5646 10.8898 35.4838 10.8287 35.4144C10.6122 35.1687 10.4021 34.9215 10.2059 34.6793C10.1482 34.6069 10.0768 34.5466 9.99587 34.502C9.91491 34.4574 9.82597 34.4293 9.73418 34.4193C9.64239 34.4094 9.54954 34.4178 9.46099 34.444C9.37243 34.4703 9.28991 34.5139 9.21817 34.5723Z" fill="#0039A6"/>
<path d="M40.0058 9.27351C37.4606 8.82823 34.9669 8.12397 32.5635 7.17161C29.4194 5.92083 26.455 4.25522 23.7479 2.21862C23.3882 1.94663 22.9502 1.79956 22.4999 1.79956C22.0497 1.79956 21.6117 1.94663 21.252 2.21862C19.9033 3.23272 18.4899 4.15668 17.0207 4.98452C16.9403 5.02966 16.8695 5.09032 16.8124 5.163C16.7553 5.23569 16.713 5.31898 16.688 5.40811C16.663 5.49724 16.6556 5.59045 16.6665 5.68242C16.6774 5.77439 16.7062 5.8633 16.7513 5.94406C16.7964 6.02481 16.8569 6.09584 16.9293 6.15305C17.0018 6.21027 17.0848 6.25256 17.1735 6.27751C17.2622 6.30245 17.355 6.30955 17.4465 6.29841C17.5379 6.28726 17.6263 6.25809 17.7066 6.21256C19.2303 5.35234 20.6962 4.39239 22.0947 3.33893C22.211 3.24905 22.3536 3.20032 22.5003 3.20032C22.647 3.20032 22.7896 3.24905 22.9059 3.33893C25.7133 5.45249 28.788 7.1811 32.0493 8.47922C34.5434 9.46806 37.1312 10.1994 39.7726 10.6621C39.9163 10.6866 40.0484 10.7569 40.1493 10.8627C40.2503 10.9684 40.3146 11.104 40.333 11.2493C40.7835 14.2251 41.4693 21.944 38.1123 29.3207C38.0723 29.405 38.0493 29.4964 38.0448 29.5897C38.0403 29.683 38.0543 29.7763 38.086 29.8641C38.1176 29.9519 38.1664 30.0325 38.2293 30.1012C38.2923 30.1698 38.3682 30.2253 38.4527 30.2641C38.5372 30.3031 38.6286 30.3247 38.7214 30.3278C38.8143 30.3308 38.9069 30.3154 38.9937 30.2821C39.0805 30.2489 39.16 30.1987 39.2272 30.1343C39.2946 30.07 39.3485 29.9927 39.3859 29.9072C42.9005 22.1848 42.1881 14.1385 41.7187 11.036C41.6552 10.598 41.4552 10.1914 41.1475 9.87475C40.8397 9.55814 40.4401 9.34759 40.0058 9.27351Z" fill="#0039A6"/>
<path d="M21.8249 38.9942C22.0414 39.0741 22.2702 39.1154 22.5009 39.1161C22.7279 39.1158 22.9531 39.0756 23.1664 38.9971C24.1328 38.6554 25.0751 38.2482 25.9867 37.7782C26.0685 37.7358 26.1412 37.6777 26.2007 37.6071C26.2602 37.5365 26.3052 37.4548 26.3334 37.3667C26.3614 37.2786 26.3719 37.1858 26.3643 37.0936C26.3567 37.0014 26.3311 36.9116 26.289 36.8294C26.2468 36.7471 26.189 36.674 26.1187 36.6142C26.0485 36.5544 25.9673 36.5091 25.8796 36.4809C25.7919 36.4527 25.6996 36.4422 25.6079 36.4498C25.5161 36.4574 25.4268 36.4832 25.345 36.5255C24.4882 36.9683 23.6023 37.3518 22.6935 37.6733C22.5663 37.7232 22.425 37.7232 22.2977 37.6733C19.157 36.5917 16.3341 34.7401 14.0846 32.2858C8.79704 26.49 8.33119 18.7302 8.52313 14.6356C8.52972 14.5264 8.55706 14.4196 8.60369 14.3208C8.67155 14.1546 8.67362 13.9686 8.60949 13.8009C8.54537 13.6331 8.41989 13.4964 8.25874 13.4187C8.0976 13.341 7.91298 13.3281 7.74269 13.3827C7.5724 13.4373 7.42932 13.5552 7.34274 13.7124C7.21786 13.9777 7.14484 14.2645 7.12768 14.5574C6.92452 18.8859 7.4247 27.0694 13.0549 33.2406C15.4571 35.8613 18.4712 37.8387 21.8249 38.9942Z" fill="#0039A6"/>
<path d="M35.3726 26.4414C35.4494 26.4702 35.5308 26.485 35.6128 26.485C35.7565 26.485 35.8966 26.4406 36.0143 26.3578C36.1319 26.2751 36.2214 26.158 36.2707 26.0224C37.5469 22.3419 38.092 18.4455 37.8749 14.5539C37.8614 14.2693 37.7919 13.9903 37.6704 13.7328C37.549 13.4753 37.378 13.2446 37.1673 13.0541C37.1006 12.9847 37.0203 12.9298 36.9316 12.8929C36.8429 12.856 36.7475 12.8378 36.6515 12.8395C36.5555 12.8412 36.4608 12.8627 36.3734 12.9027C36.286 12.9427 36.2078 13.0004 36.1434 13.072C36.0791 13.1438 36.0302 13.228 35.9996 13.3195C35.9691 13.411 35.9575 13.5078 35.9658 13.604C35.974 13.7002 36.0019 13.7937 36.0476 13.8786C36.0933 13.9635 36.1559 14.038 36.2314 14.0976C36.3047 14.1645 36.3641 14.2453 36.4062 14.3353C36.4483 14.4253 36.4722 14.5228 36.4766 14.6222C36.6851 18.3252 36.1689 22.0333 34.9571 25.5365C34.9252 25.6234 34.9107 25.7157 34.9144 25.8081C34.9179 25.9006 34.9396 25.9915 34.9783 26.0755C35.0168 26.1596 35.0715 26.2352 35.1392 26.2979C35.2068 26.3607 35.2861 26.4094 35.3726 26.4414Z" fill="#0039A6"/>
<path d="M22.2286 8.19119C22.3275 8.14595 22.4363 8.12651 22.5448 8.13462C22.6533 8.14275 22.7579 8.17818 22.8492 8.23766C24.8657 9.54596 26.9883 10.6808 29.1946 11.6303C29.3641 11.6969 29.5527 11.6945 29.7205 11.6238C29.8884 11.5531 30.0222 11.4195 30.0938 11.2513C30.1653 11.0831 30.1689 10.8936 30.1039 10.7227C30.0389 10.5519 29.9102 10.4132 29.7453 10.336C27.6114 9.41688 25.5583 8.31874 23.6079 7.05329C23.3218 6.8682 22.9944 6.75751 22.6552 6.73121C22.3159 6.7049 21.9755 6.76381 21.6646 6.9026C21.5042 6.98344 21.3808 7.12304 21.3198 7.29262C21.2588 7.46221 21.2649 7.64886 21.3367 7.81409C21.4086 7.97932 21.5408 8.11054 21.7061 8.18071C21.8714 8.25087 22.0571 8.25462 22.225 8.19119H22.2286Z" fill="#0039A6"/>
<path d="M33.3522 13.1857C33.4176 13.2056 33.4855 13.2155 33.5539 13.2153C33.722 13.2152 33.8845 13.1543 34.0117 13.0437C34.1389 12.9331 34.2223 12.7802 34.2466 12.6129C34.2709 12.4457 34.2345 12.2753 34.1441 12.1327C34.0537 11.9902 33.9154 11.8851 33.7542 11.8366C33.4159 11.7345 33.0782 11.619 32.7399 11.4965C32.565 11.4332 32.3724 11.4423 32.2042 11.5218C32.0361 11.6013 31.9062 11.7446 31.8432 11.9204C31.7802 12.0961 31.7893 12.2898 31.8684 12.4588C31.9474 12.6279 32.0901 12.7584 32.2649 12.8217C32.6278 12.9527 32.99 13.0766 33.3522 13.1857Z" fill="#0039A6"/>
<path d="M18.7257 21.1469C18.3093 20.7369 17.7496 20.5072 17.1667 20.5072C16.5837 20.5072 16.024 20.7369 15.6076 21.1469L14.7306 22.0461C14.3224 22.4692 14.0942 23.0355 14.0942 23.6248C14.0942 24.2141 14.3224 24.7804 14.7306 25.2035L20.098 30.7092C20.3008 30.9185 20.5432 31.0848 20.8108 31.1983C21.0786 31.3119 21.3661 31.3704 21.6567 31.3704C21.9473 31.3704 22.2349 31.3119 22.5026 31.1983C22.7703 31.0848 23.0127 30.9185 23.2154 30.7092L33.0733 20.597C33.4814 20.1738 33.7096 19.6076 33.7096 19.0183C33.7096 18.4289 33.4814 17.8627 33.0733 17.4395L32.1963 16.5404C31.994 16.3307 31.7518 16.1641 31.4841 16.0505C31.2165 15.9369 30.9288 15.8786 30.6382 15.8792C30.3475 15.8786 30.0596 15.9369 29.7917 16.0505C29.5238 16.164 29.2814 16.3307 29.0788 16.5404L22.2137 23.5819C22.0652 23.7294 21.8648 23.8122 21.6561 23.8122C21.4472 23.8122 21.2469 23.7294 21.0984 23.5819L18.7257 21.1469ZM23.2154 24.567L30.0807 17.5254C30.1529 17.4502 30.2396 17.3903 30.3355 17.3493C30.4314 17.3084 30.5344 17.2873 30.6386 17.2873C30.7428 17.2873 30.8458 17.3084 30.9417 17.3493C31.0376 17.3903 31.1243 17.4502 31.1965 17.5254L32.0737 18.4254C32.227 18.5842 32.3128 18.7969 32.3128 19.0183C32.3128 19.2396 32.227 19.4523 32.0737 19.6112L22.2144 29.7242C22.0659 29.8717 21.8655 29.9546 21.6567 29.9546C21.4479 29.9546 21.2476 29.8717 21.0991 29.7242L15.7316 24.2177C15.5783 24.0589 15.4925 23.8462 15.4925 23.6248C15.4925 23.4035 15.5783 23.1908 15.7316 23.0319L16.6087 22.132C16.7574 21.9846 16.9578 21.9019 17.1667 21.9019C17.3755 21.9019 17.576 21.9846 17.7246 22.132L20.098 24.567C20.5144 24.9768 21.074 25.2064 21.6567 25.2064C22.2395 25.2064 22.7991 24.9768 23.2154 24.567Z" fill="#0039A6"/>
<path d="M6.38867 10.2459C6.38875 10.4105 6.44619 10.5699 6.55099 10.6963C6.65581 10.8228 6.80137 10.9083 6.96241 10.9381C11.4045 11.7605 11.8872 12.2457 12.7068 16.7121C12.7368 16.8737 12.8221 17.0195 12.9478 17.1245C13.0736 17.2295 13.2319 17.287 13.3954 17.287C13.5589 17.287 13.7172 17.2295 13.843 17.1245C13.9687 17.0195 14.054 16.8737 14.084 16.7121C14.9022 12.2471 15.3849 11.762 19.8284 10.9381C19.989 10.9079 20.1342 10.8222 20.2387 10.6958C20.3432 10.5694 20.4003 10.4103 20.4003 10.2459C20.4003 10.0816 20.3432 9.92248 20.2387 9.79605C20.1342 9.66961 19.989 9.58391 19.8284 9.55374C15.3863 8.73129 14.9037 8.24613 14.084 3.7797C14.054 3.61817 13.9687 3.47228 13.843 3.36729C13.7172 3.2623 13.5589 3.20483 13.3954 3.20483C13.2319 3.20483 13.0736 3.2623 12.9478 3.36729C12.8221 3.47228 12.7368 3.61817 12.7068 3.7797C11.8885 8.24472 11.4059 8.72988 6.96241 9.55374C6.80137 9.58354 6.65581 9.66908 6.55099 9.79552C6.44619 9.92195 6.38875 10.0814 6.38867 10.2459ZM13.394 6.93007C13.602 7.72711 14.0172 8.45421 14.5968 9.03683C15.1765 9.61952 15.8999 10.0368 16.6928 10.2459C15.8999 10.455 15.1765 10.8723 14.5968 11.4549C14.0172 12.0376 13.602 12.7647 13.394 13.5618C13.1859 12.7647 12.7709 12.0376 12.1912 11.4549C11.6115 10.8723 10.8881 10.455 10.0952 10.2459C10.8881 10.0368 11.6115 9.61952 12.1912 9.03683C12.7709 8.45421 13.1859 7.72711 13.394 6.93007Z" fill="#0039A6"/>
<path d="M41.5421 34.9031C37.1001 34.0807 36.6173 33.5955 35.7978 29.1291C35.7678 28.9676 35.6824 28.8217 35.5567 28.7167C35.4309 28.6117 35.2726 28.5542 35.1091 28.5542C34.9456 28.5542 34.7874 28.6117 34.6615 28.7167C34.5358 28.8217 34.4505 28.9676 34.4205 29.1291C33.6023 33.5941 33.1196 34.0792 28.6761 34.9031C28.5155 34.9333 28.3703 35.019 28.2658 35.1454C28.1614 35.2719 28.1042 35.431 28.1042 35.5953C28.1042 35.7596 28.1614 35.9188 28.2658 36.0452C28.3703 36.1716 28.5155 36.2573 28.6761 36.2875C33.1182 37.1099 33.6009 37.5951 34.4205 42.0616C34.4505 42.2231 34.5358 42.369 34.6615 42.4739C34.7874 42.5789 34.9456 42.6364 35.1091 42.6364C35.2726 42.6364 35.4309 42.5789 35.5567 42.4739C35.6824 42.369 35.7678 42.2231 35.7978 42.0616C36.616 37.5965 37.0986 37.1113 41.5421 36.2875C41.7028 36.2573 41.848 36.1716 41.9524 36.0452C42.0568 35.9188 42.114 35.7596 42.114 35.5953C42.114 35.431 42.0568 35.2719 41.9524 35.1454C41.848 35.019 41.7028 34.9333 41.5421 34.9031ZM35.1105 38.9112C34.9025 38.1142 34.4873 37.387 33.9077 36.8044C33.328 36.2217 32.6047 35.8045 31.8118 35.5953C32.6047 35.3862 33.328 34.9689 33.9077 34.3863C34.4873 33.8036 34.9025 33.0765 35.1105 32.2794C35.3186 33.0765 35.7337 33.8036 36.3133 34.3863C36.893 34.9689 37.6164 35.3862 38.4093 35.5953C37.6164 35.8045 36.893 36.2217 36.3133 36.8044C35.7337 37.387 35.3186 38.1142 35.1105 38.9112Z" fill="#0039A6"/>
</g>
</g>
</g>
</g>
<defs>
<clipPath id="clip0_45_710">
<rect width="44.2" height="44.2" fill="white" transform="translate(0.399902 0.739746)"/>
</clipPath>
<clipPath id="clip1_45_710">
<rect width="43" height="43" fill="white" transform="translate(1 1.33984)"/>
</clipPath>
<clipPath id="clip2_45_710">
<rect width="43" height="43" fill="white" transform="translate(1 1.33984)"/>
</clipPath>
<clipPath id="clip3_45_710">
<rect width="39.2281" height="43" fill="white" transform="translate(2.88599 1.33984)"/>
</clipPath>
</defs>
</svg>
