<svg width="8" height="16" viewBox="0 0 8 16" fill="none" xmlns="http://www.w3.org/2000/svg">
<g clip-path="url(#clip0_27_285)">
<path d="M2.59986 8.99912C2.50613 8.90616 2.43174 8.79556 2.38097 8.6737C2.3302 8.55184 2.30406 8.42113 2.30406 8.28912C2.30406 8.15711 2.3302 8.0264 2.38097 7.90455C2.43174 7.78269 2.50613 7.67208 2.59986 7.57912L7.18986 2.99912C7.28359 2.90616 7.35798 2.79556 7.40875 2.6737C7.45952 2.55184 7.48566 2.42113 7.48566 2.28912C7.48566 2.15711 7.45952 2.0264 7.40875 1.90454C7.35798 1.78268 7.28359 1.67209 7.18986 1.57912C7.0025 1.39287 6.74905 1.28833 6.48486 1.28833C6.22067 1.28833 5.96722 1.39287 5.77986 1.57912L1.18986 6.16912C0.628058 6.73162 0.3125 7.49412 0.3125 8.28912C0.3125 9.08412 0.628058 9.84662 1.18986 10.4091L5.77986 14.9991C5.96612 15.1838 6.21752 15.288 6.47986 15.2891C6.61147 15.2899 6.74193 15.2646 6.86377 15.2149C6.9856 15.1651 7.09642 15.0918 7.18986 14.9991C7.28359 14.9061 7.35798 14.7955 7.40875 14.6737C7.45952 14.5518 7.48566 14.4211 7.48566 14.2891C7.48566 14.1571 7.45952 14.0264 7.40875 13.9045C7.35798 13.7827 7.28359 13.6721 7.18986 13.5791L2.59986 8.99912Z" fill="white"/>
</g>
<defs>
<clipPath id="clip0_27_285">
<rect width="8" height="15" fill="white" transform="translate(0 0.679932)"/>
</clipPath>
</defs>
</svg>
