<svg width="15" height="23" viewBox="0 0 15 23" fill="none" xmlns="http://www.w3.org/2000/svg">
<path d="M6.73444 0.312278C4.56096 0.469145 2.60137 1.59574 1.38746 3.39258C0.647559 4.48495 0.263154 5.66573 0.225581 6.9606C0.208239 7.53388 0.228471 7.74494 0.352752 8.2954C0.815194 10.366 2.73721 13.8856 5.63614 17.9812C6.36738 19.0137 7.1911 20.1118 7.23156 20.1032C7.26336 20.0975 7.85876 19.3046 8.46282 18.4661C9.15938 17.4992 9.13914 17.5249 9.74609 16.6265C12.2837 12.8702 13.7289 10.0552 14.1537 8.05582C14.2115 7.78487 14.2202 7.65937 14.2202 7.12888C14.2202 6.4957 14.1855 6.19908 14.0583 5.64577C13.8878 4.91847 13.4919 4.0229 13.0525 3.37547C11.9282 1.71267 10.1045 0.597492 8.10732 0.352207C7.69691 0.300869 7.11595 0.286607 6.73444 0.312278ZM7.97725 1.14225C8.32697 1.18218 8.82122 1.29056 9.19695 1.4132C9.57845 1.53584 10.2894 1.8781 10.6218 2.09771C11.9947 2.99899 12.9572 4.38798 13.2924 5.94524C13.4976 6.91782 13.4658 7.65652 13.1768 8.62625C12.5467 10.7225 10.5554 14.1822 7.69112 18.1524C7.45411 18.4804 7.2518 18.7627 7.24023 18.7741C7.21133 18.8083 6.22864 17.4393 5.34133 16.1273C2.95976 12.6021 1.54064 9.8926 1.12734 8.08434C1.03196 7.66793 1.00017 7.06898 1.05219 6.58412C1.26896 4.52773 2.54067 2.70807 4.41645 1.76401C5.52631 1.205 6.70554 0.999641 7.97725 1.14225Z" fill="white"/>
<path d="M6.95103 4.21961C5.56948 4.35366 4.45673 5.36331 4.21973 6.69811C3.92492 8.3495 5.06658 9.92388 6.7516 10.1948C7.08976 10.249 7.32098 10.249 7.67359 10.1948C8.34124 10.095 8.92507 9.79838 9.39619 9.31922C10.0205 8.68605 10.3153 7.91312 10.2662 7.04892C10.1852 5.60004 9.00889 4.36507 7.58688 4.23387C7.20826 4.19964 7.16491 4.19964 6.95103 4.21961ZM7.77475 5.0781C8.40772 5.24067 8.93374 5.65993 9.21988 6.23036C9.41064 6.60684 9.4511 6.78653 9.4511 7.24287C9.44821 7.59939 9.44243 7.64787 9.35861 7.8846C9.09849 8.63186 8.55223 9.14809 7.79787 9.35915C7.50885 9.44186 6.97704 9.44757 6.6909 9.37341C6.44234 9.30781 6.02325 9.10246 5.81804 8.94274C5.4741 8.67464 5.17063 8.21259 5.05213 7.78477C5.01455 7.64787 5.0001 7.49671 5.0001 7.20009C5.0001 6.82361 5.00588 6.78653 5.09548 6.52984C5.3556 5.79398 5.92498 5.26919 6.67645 5.07525C6.96837 4.99824 7.47416 4.99824 7.77475 5.0781Z" fill="white"/>
<path d="M9.63904 18.1154C9.5032 18.2922 9.39048 18.4462 9.3847 18.4576C9.37892 18.4691 9.42517 18.4805 9.48875 18.4805C9.79512 18.4805 10.3876 18.6316 10.7865 18.8085C11.272 19.0281 11.7576 19.416 11.8963 19.6983C11.9541 19.8153 11.957 19.8438 11.9252 19.9579C11.8096 20.3885 11.1449 20.8848 10.2691 21.1928C9.36447 21.5123 8.41936 21.6378 7.15631 21.6093C5.76032 21.5779 4.69092 21.3611 3.75159 20.919C3.31516 20.7137 3.04636 20.5369 2.80069 20.2944C2.42785 19.9236 2.41629 19.7411 2.74867 19.3931C3.15041 18.9739 3.81517 18.6744 4.65335 18.5375C4.86145 18.5061 5.03775 18.4748 5.04931 18.4719C5.06087 18.4691 4.97417 18.3379 4.85278 18.181C4.73138 18.0241 4.62445 17.8758 4.60999 17.853C4.58109 17.8045 4.37299 17.8387 3.84408 17.987C3.08683 18.1981 2.54635 18.4691 2.18218 18.8227C1.84113 19.1536 1.69372 19.4987 1.7313 19.8809C1.83824 21.0331 3.36429 21.903 5.83546 22.2196C6.42219 22.2938 7.86154 22.3251 8.46849 22.2767C9.58991 22.1854 10.6131 21.9373 11.3298 21.5836C11.9137 21.2927 12.3472 20.9133 12.5495 20.514C12.7721 20.0777 12.7779 19.6784 12.5698 19.2562C12.3183 18.7486 11.7345 18.3322 10.8847 18.0526C10.6391 17.9699 9.92807 17.7902 9.88761 17.796C9.88761 17.796 9.77489 17.9414 9.63904 18.1154Z" fill="white"/>
</svg>
