<svg width="21" height="20" viewBox="0 0 21 20" fill="none" xmlns="http://www.w3.org/2000/svg">
<path d="M4.20806 0.516487C3.89878 0.590078 3.40871 0.800028 3.09724 0.990498C2.7444 1.20478 2.09315 1.72424 1.69456 2.10518C0.618597 3.13762 0.0435841 4.38434 0.165557 5.42543C0.19605 5.683 0.307132 6.14619 0.413857 6.4557C0.701364 7.28685 1.27202 8.44482 1.8797 9.43181C3.18219 11.54 4.79832 13.4598 6.48415 14.897C8.27889 16.4294 10.5833 17.8774 12.6154 18.7497C14.212 19.4358 15.2335 19.6285 16.1657 19.4207C16.5098 19.3428 16.7385 19.2605 17.0914 19.0852C18.224 18.5203 19.4546 17.3407 19.9251 16.3688C20.0906 16.029 20.1472 15.7823 20.1494 15.4165C20.1494 15.1394 20.145 15.0983 20.0906 14.9425C20.0013 14.6914 19.8466 14.4858 19.4437 14.0832C19.0103 13.6503 18.7685 13.4512 17.9604 12.8495C16.7625 11.9577 15.8259 11.3928 15.4034 11.304C15.1115 11.2434 14.7783 11.2759 14.53 11.3885C14.0856 11.5919 13.7981 11.9685 13.1774 13.1655C12.8507 13.7931 12.7679 13.9144 12.5806 14.0529C12.402 14.1827 12.2386 14.2412 12.0491 14.2434C11.8553 14.2434 11.7551 14.1979 11.1126 13.8148C9.92116 13.1027 9.0325 12.4274 8.09811 11.5205C6.9764 10.4339 6.26852 9.54219 5.83727 8.68507L5.67391 8.36041L5.68262 8.17643C5.69569 7.947 5.7545 7.79982 5.88736 7.67861C5.98973 7.58554 6.05289 7.55307 6.5495 7.34962C7.11144 7.12019 7.57755 6.8756 8.00881 6.58773C8.61649 6.18298 8.83212 5.65486 8.64045 5.04665C8.52283 4.6787 8.00445 3.67657 7.61458 3.06836C6.92413 1.98614 6.32951 1.313 5.71094 0.910414C5.48224 0.763233 5.2078 0.624708 5.00306 0.555447C4.89198 0.516487 4.80268 0.505665 4.57834 0.501335C4.42369 0.497007 4.25598 0.5035 4.20806 0.516487ZM4.95514 1.48615C5.54105 1.78701 5.97013 2.2199 6.64098 3.1874C7.15936 3.9363 7.83456 5.21765 7.83456 5.4514C7.83456 5.62023 7.6821 5.76958 7.25084 6.02715C6.84354 6.2674 6.64315 6.36696 6.18576 6.55094C5.97884 6.63535 5.74796 6.73492 5.67391 6.77171C5.10325 7.05525 4.80486 7.54225 4.8005 8.19808C4.79832 8.48595 4.83317 8.63529 4.95732 8.90152C5.33195 9.69587 5.96577 10.5703 6.84136 11.4945C8.17216 12.8992 9.40713 13.8581 11.1452 14.8407C11.4458 15.0117 11.6048 15.0702 11.8596 15.1005C12.3911 15.1654 12.9313 14.9576 13.3473 14.5247C13.5368 14.3299 13.6369 14.1719 13.9441 13.5767C14.4494 12.5962 14.7151 12.2174 14.9394 12.159C15.1224 12.1092 15.2574 12.1395 15.5645 12.3062C16.6906 12.9144 18.5376 14.3061 19.0734 14.9511C19.2978 15.2217 19.3239 15.3147 19.2564 15.6394C19.1627 16.1091 18.6574 16.8104 18.0018 17.3861C17.246 18.0506 16.6623 18.3947 16.0023 18.5701C15.7628 18.6328 15.2509 18.648 14.9656 18.6004C13.5019 18.3558 10.9732 17.1177 8.78203 15.5723C7.71041 14.8169 6.80651 14.0637 5.97231 13.2304C4.96168 12.2218 3.98154 11.0248 3.13645 9.76729C1.99514 8.06821 1.17618 6.34315 1.03897 5.3605C0.921349 4.5207 1.51596 3.40168 2.55273 2.50777C3.28238 1.87575 3.65919 1.63117 4.2146 1.42122C4.35835 1.36711 4.40627 1.35845 4.55656 1.36495C4.71773 1.37144 4.74823 1.3801 4.95514 1.48615Z" fill="#0E0E13"/>
</svg>
