<svg width="8" height="16" viewBox="0 0 8 16" fill="none" xmlns="http://www.w3.org/2000/svg">
<g clip-path="url(#clip0_27_289)">
<path d="M6.3998 6.16912L1.8098 1.57912C1.62244 1.39287 1.36899 1.28833 1.1048 1.28833C0.840616 1.28833 0.587165 1.39287 0.399802 1.57912C0.306074 1.67209 0.23168 1.78268 0.180911 1.90454C0.130142 2.0264 0.104004 2.15711 0.104004 2.28912C0.104004 2.42113 0.130142 2.55184 0.180911 2.6737C0.23168 2.79556 0.306074 2.90616 0.399802 2.99912L4.9998 7.57912C5.09353 7.67208 5.16793 7.78269 5.21869 7.90455C5.26946 8.0264 5.2956 8.15711 5.2956 8.28912C5.2956 8.42113 5.26946 8.55184 5.21869 8.6737C5.16793 8.79556 5.09353 8.90616 4.9998 8.99912L0.399802 13.5791C0.211499 13.7661 0.105184 14.0202 0.104246 14.2856C0.103308 14.5509 0.207825 14.8058 0.394803 14.9941C0.581781 15.1824 0.835903 15.2887 1.10127 15.2896C1.36663 15.2906 1.6215 15.1861 1.8098 14.9991L6.3998 10.4091C6.96161 9.84662 7.27716 9.08412 7.27716 8.28912C7.27716 7.49412 6.96161 6.73162 6.3998 6.16912Z" fill="white"/>
</g>
<defs>
<clipPath id="clip0_27_289">
<rect width="8" height="15" fill="white" transform="translate(0 0.679932)"/>
</clipPath>
</defs>
</svg>
