<svg width="20" height="20" viewBox="0 0 20 20" fill="none" xmlns="http://www.w3.org/2000/svg">
<path d="M4.05865 0.816292C3.74937 0.889883 3.2593 1.09983 2.94783 1.2903C2.59499 1.50458 1.94374 2.02405 1.54515 2.40499C0.469183 3.43743 -0.10583 4.68415 0.0161428 5.72524C0.0466359 5.98281 0.157718 6.446 0.264443 6.75551C0.55195 7.58666 1.12261 8.74463 1.73029 9.73162C3.03278 11.8398 4.64891 13.7596 6.33474 15.1968C8.12948 16.7292 10.4339 18.1772 12.466 19.0495C14.0626 19.7356 15.0841 19.9283 16.0163 19.7205C16.3604 19.6426 16.5891 19.5603 16.942 19.385C18.0746 18.8201 19.3052 17.6405 19.7757 16.6686C19.9412 16.3288 19.9978 16.0821 20 15.7163C20 15.4392 19.9956 15.3981 19.9412 15.2423C19.8519 14.9912 19.6972 14.7856 19.2943 14.383C18.8609 13.9501 18.6191 13.751 17.811 13.1493C16.6131 12.2575 15.6765 11.6926 15.254 11.6038C14.9621 11.5432 14.6289 11.5757 14.3806 11.6883C13.9362 11.8917 13.6487 12.2683 13.028 13.4653C12.7013 14.0929 12.6185 14.2142 12.4312 14.3527C12.2526 14.4825 12.0892 14.541 11.8997 14.5432C11.7059 14.5432 11.6057 14.4977 10.9632 14.1146C9.77175 13.4025 8.88309 12.7272 7.9487 11.8203C6.82699 10.7337 6.11911 9.842 5.68786 8.98488L5.5245 8.66022L5.53321 8.47624C5.54628 8.24681 5.60509 8.09963 5.73795 7.97842C5.84032 7.88535 5.90348 7.85288 6.40009 7.64943C6.96203 7.42 7.42814 7.17541 7.8594 6.88754C8.46708 6.48279 8.68271 5.95467 8.49104 5.34646C8.37342 4.97851 7.85504 3.97638 7.46517 3.36817C6.77472 2.28595 6.1801 1.6128 5.56153 1.21022C5.33283 1.06304 5.05839 0.924513 4.85365 0.855251C4.74257 0.816292 4.65327 0.805469 4.42893 0.80114C4.27428 0.796812 4.10657 0.803305 4.05865 0.816292ZM4.80573 1.78596C5.39164 2.08682 5.82072 2.51971 6.49157 3.48721C7.00995 4.23611 7.68515 5.51746 7.68515 5.75121C7.68515 5.92004 7.53269 6.06939 7.10143 6.32696C6.69413 6.56721 6.49374 6.66677 6.03635 6.85075C5.82943 6.93516 5.59855 7.03473 5.5245 7.07152C4.95384 7.35506 4.65545 7.84206 4.65109 8.49789C4.64891 8.78576 4.68376 8.9351 4.80791 9.20133C5.18254 9.99568 5.81636 10.8701 6.69195 11.7943C8.02275 13.199 9.25772 14.1579 10.9958 15.1405C11.2964 15.3115 11.4554 15.37 11.7102 15.4003C12.2417 15.4652 12.7819 15.2574 13.1979 14.8245C13.3874 14.6297 13.4875 14.4717 13.7947 13.8765C14.3 12.896 14.5657 12.5172 14.79 12.4588C14.973 12.409 15.108 12.4393 15.4151 12.606C16.5412 13.2142 18.3882 14.6059 18.924 15.2509C19.1484 15.5215 19.1745 15.6145 19.107 15.9392C19.0133 16.4089 18.508 17.1102 17.8524 17.6859C17.0966 18.3504 16.5129 18.6945 15.8529 18.8699C15.6134 18.9326 15.1015 18.9478 14.8162 18.9002C13.3525 18.6556 10.8238 17.4175 8.63262 15.8721C7.561 15.1167 6.6571 14.3635 5.8229 13.5302C4.81227 12.5216 3.83213 11.3246 2.98704 10.0671C1.84573 8.36802 1.02677 6.64296 0.889552 5.66031C0.771935 4.82051 1.36655 3.70149 2.40332 2.80758C3.13297 2.17556 3.50978 1.93098 4.06519 1.72103C4.20894 1.66692 4.25686 1.65826 4.40715 1.66475C4.56832 1.67124 4.59882 1.6799 4.80573 1.78596Z" fill="white"/>
</svg>
